<svg width="109" height="24" viewBox="0 0 109 24" fill="none" xmlns="http://www.w3.org/2000/svg">
<path d="M19.778 18.198C19.07 18.198 18.422 18.09 17.834 17.874C17.258 17.658 16.778 17.352 16.394 16.956L16.196 18H15.188V13.914H16.286C16.358 15.054 16.646 15.888 17.15 16.416C17.654 16.944 18.416 17.208 19.436 17.208C21.152 17.208 22.01 16.554 22.01 15.246C22.01 14.73 21.878 14.298 21.614 13.95C21.362 13.602 20.99 13.29 20.498 13.014C20.018 12.738 19.442 12.468 18.77 12.204C18.014 11.892 17.372 11.586 16.844 11.286C16.316 10.974 15.914 10.602 15.638 10.17C15.374 9.726 15.242 9.156 15.242 8.46C15.242 7.32 15.596 6.432 16.304 5.796C17.024 5.16 17.984 4.842 19.184 4.842C20.372 4.842 21.338 5.178 22.082 5.85L22.226 5.04H23.234V9.126H22.208C22.208 7.974 21.992 7.134 21.56 6.606C21.128 6.078 20.45 5.814 19.526 5.814C17.882 5.814 17.06 6.564 17.06 8.064C17.06 8.46 17.132 8.79 17.276 9.054C17.42 9.306 17.678 9.54 18.05 9.756C18.434 9.972 18.974 10.23 19.67 10.53C20.666 10.95 21.47 11.358 22.082 11.754C22.694 12.15 23.138 12.582 23.414 13.05C23.69 13.506 23.828 14.052 23.828 14.688C23.828 15.792 23.456 16.656 22.712 17.28C21.968 17.892 20.99 18.198 19.778 18.198ZM24.9374 9.18V8.532L26.6834 8.28L26.9174 6.012L28.4294 5.796V8.28H30.7334V9.18H28.4294V15.606C28.4294 16.014 28.4354 16.296 28.4474 16.452C28.4594 16.596 28.4834 16.716 28.5194 16.812C28.5554 16.896 28.6214 16.956 28.7174 16.992C28.8134 17.016 28.9694 17.028 29.1854 17.028H30.4454V17.55C29.8694 17.766 29.3594 17.922 28.9154 18.018C28.4834 18.126 28.1354 18.18 27.8714 18.18C27.3314 18.18 26.9834 17.958 26.8274 17.514C26.7794 17.37 26.7434 17.184 26.7194 16.956C26.6954 16.728 26.6834 16.392 26.6834 15.948V9.18H24.9374ZM31.5942 15.894C31.5942 14.958 32.0322 14.22 32.9082 13.68C33.7842 13.14 35.2362 12.72 37.2642 12.42C37.2162 11.712 37.1502 11.16 37.0662 10.764C36.9822 10.368 36.8742 10.05 36.7422 9.81C36.5742 9.498 36.3402 9.27 36.0402 9.126C35.7402 8.97 35.4162 8.892 35.0682 8.892C34.7322 8.892 34.4262 8.952 34.1502 9.072C33.8862 9.192 33.7062 9.354 33.6102 9.558C33.7782 9.678 33.8982 9.834 33.9702 10.026C34.0542 10.218 34.0962 10.398 34.0962 10.566C34.0962 10.866 33.9942 11.106 33.7902 11.286C33.5982 11.454 33.3582 11.538 33.0702 11.538C32.7822 11.538 32.5422 11.442 32.3502 11.25C32.1702 11.058 32.0802 10.788 32.0802 10.44C32.0802 9.936 32.2542 9.51 32.6022 9.162C32.9502 8.814 33.3882 8.55 33.9162 8.37C34.4562 8.19 34.9962 8.1 35.5362 8.1C36.5562 8.1 37.3602 8.394 37.9482 8.982C38.6922 9.726 39.0642 11.046 39.0642 12.942V15.552C39.0642 16.14 39.1002 16.548 39.1722 16.776C39.2562 17.004 39.4302 17.118 39.6942 17.118H40.5042V17.658C39.6402 18.006 38.9682 18.18 38.4882 18.18C38.1162 18.18 37.8642 18.048 37.7322 17.784C37.6122 17.508 37.5522 16.986 37.5522 16.218H37.4802C37.1082 16.83 36.6162 17.31 36.0042 17.658C35.3922 18.006 34.7322 18.18 34.0242 18.18C33.2682 18.18 32.6742 17.976 32.2422 17.568C31.8102 17.16 31.5942 16.602 31.5942 15.894ZM34.7802 17.136C35.1162 17.136 35.4642 17.052 35.8242 16.884C36.1962 16.704 36.5082 16.458 36.7602 16.146C37.1322 15.69 37.3182 15.018 37.3182 14.13C37.3182 13.926 37.3122 13.728 37.3002 13.536C37.2882 13.332 37.2702 13.14 37.2462 12.96C36.2742 13.152 35.5122 13.362 34.9602 13.59C34.4082 13.806 34.0182 14.07 33.7902 14.382C33.5622 14.682 33.4482 15.06 33.4482 15.516C33.4482 16.032 33.5622 16.434 33.7902 16.722C34.0302 16.998 34.3602 17.136 34.7802 17.136ZM42.6121 16.92V9.36L41.2261 9.018V8.28H43.8181L44.2141 10.08H44.2861C44.6461 9.468 45.1321 8.988 45.7441 8.64C46.3561 8.28 47.0101 8.1 47.7061 8.1C48.7021 8.1 49.4401 8.424 49.9201 9.072C50.1601 9.408 50.3281 9.882 50.4241 10.494C50.5321 11.094 50.5861 11.91 50.5861 12.942V16.92L51.9721 17.262V18H47.6341V17.262L48.8401 16.92V12.906C48.8401 12.126 48.8161 11.544 48.7681 11.16C48.7321 10.776 48.6601 10.476 48.5521 10.26C48.2641 9.672 47.7361 9.378 46.9681 9.378C46.2721 9.378 45.6721 9.6 45.1681 10.044C44.6761 10.488 44.4061 11.178 44.3581 12.114V16.92L45.5641 17.262V18H41.2261V17.262L42.6121 16.92ZM53.201 13.23C53.201 12.45 53.303 11.706 53.507 10.998C53.711 10.29 54.017 9.714 54.425 9.27C54.773 8.886 55.187 8.598 55.667 8.406C56.147 8.202 56.699 8.1 57.323 8.1C57.851 8.1 58.331 8.202 58.763 8.406C59.207 8.61 59.603 8.976 59.951 9.504V5.04L58.565 4.698V3.96H61.697V16.92L63.083 17.262V18L60.293 18.18L60.149 16.704C59.777 17.256 59.357 17.64 58.889 17.856C58.421 18.072 57.899 18.18 57.323 18.18C56.711 18.18 56.159 18.09 55.667 17.91C55.175 17.73 54.767 17.442 54.443 17.046C54.059 16.578 53.753 16.02 53.525 15.372C53.309 14.712 53.201 13.998 53.201 13.23ZM59.951 13.212C59.951 11.736 59.741 10.662 59.321 9.99C59.129 9.678 58.895 9.444 58.619 9.288C58.343 9.12 57.977 9.036 57.521 9.036C56.705 9.036 56.099 9.318 55.703 9.882C55.487 10.182 55.331 10.614 55.235 11.178C55.139 11.73 55.091 12.366 55.091 13.086C55.091 14.526 55.301 15.594 55.721 16.29C55.925 16.59 56.165 16.824 56.441 16.992C56.729 17.16 57.095 17.244 57.539 17.244C57.959 17.244 58.319 17.178 58.619 17.046C58.931 16.902 59.165 16.692 59.321 16.416C59.525 16.08 59.681 15.648 59.789 15.12C59.897 14.58 59.951 13.944 59.951 13.212ZM67.1172 20.16L68.8632 20.502V21.24H63.9852V20.502L65.3712 20.16V9.36L63.9852 9.018V8.28H66.5772L66.8472 9.666C67.2312 9.066 67.6632 8.658 68.1432 8.442C68.6352 8.214 69.1872 8.1 69.7992 8.1C70.4112 8.1 70.9632 8.19 71.4552 8.37C71.9592 8.55 72.3672 8.838 72.6792 9.234C73.0392 9.69 73.3212 10.242 73.5252 10.89C73.7412 11.526 73.8492 12.216 73.8492 12.96C73.8492 13.728 73.7292 14.454 73.4892 15.138C73.2612 15.81 72.9492 16.374 72.5532 16.83C71.8812 17.61 70.9152 18 69.6552 18C69.1392 18 68.6712 17.904 68.2512 17.712C67.8432 17.508 67.4652 17.16 67.1172 16.668V20.16ZM67.0992 12.978C67.0992 14.406 67.3092 15.45 67.7292 16.11C67.9212 16.41 68.1552 16.644 68.4312 16.812C68.7192 16.98 69.0852 17.064 69.5292 17.064C70.3452 17.064 70.9512 16.782 71.3472 16.218C71.5632 15.918 71.7192 15.498 71.8152 14.958C71.9112 14.418 71.9592 13.8 71.9592 13.104C71.9592 11.7 71.7492 10.662 71.3292 9.99C71.1372 9.678 70.8972 9.444 70.6092 9.288C70.3332 9.12 69.9672 9.036 69.5112 9.036C69.1032 9.036 68.7432 9.108 68.4312 9.252C68.1312 9.384 67.8972 9.588 67.7292 9.864C67.5372 10.188 67.3812 10.614 67.2612 11.142C67.1532 11.658 67.0992 12.27 67.0992 12.978ZM84.3277 13.05C84.3277 13.83 84.2077 14.574 83.9677 15.282C83.7397 15.978 83.4157 16.554 82.9957 17.01C82.2877 17.79 81.2437 18.18 79.8637 18.18C79.2037 18.18 78.6157 18.09 78.0997 17.91C77.5837 17.718 77.1457 17.43 76.7857 17.046C76.3777 16.602 76.0597 16.056 75.8317 15.408C75.6157 14.748 75.5077 14.034 75.5077 13.266C75.5077 12.486 75.6217 11.742 75.8497 11.034C76.0777 10.314 76.4077 9.726 76.8397 9.27C77.2237 8.862 77.6677 8.568 78.1717 8.388C78.6877 8.196 79.2757 8.1 79.9357 8.1C80.5957 8.1 81.1897 8.196 81.7177 8.388C82.2457 8.568 82.6897 8.85 83.0497 9.234C83.4697 9.678 83.7877 10.236 84.0037 10.908C84.2197 11.568 84.3277 12.282 84.3277 13.05ZM77.4337 13.068C77.4337 13.8 77.4877 14.436 77.5957 14.976C77.7157 15.504 77.8777 15.942 78.0817 16.29C78.2857 16.59 78.5257 16.824 78.8017 16.992C79.0897 17.16 79.4617 17.244 79.9177 17.244C80.7457 17.244 81.3637 16.962 81.7717 16.398C81.9877 16.086 82.1437 15.654 82.2397 15.102C82.3477 14.55 82.4017 13.914 82.4017 13.194C82.4017 12.474 82.3417 11.844 82.2217 11.304C82.1137 10.764 81.9577 10.326 81.7537 9.99C81.5617 9.678 81.3157 9.444 81.0157 9.288C80.7277 9.12 80.3557 9.036 79.8997 9.036C79.0597 9.036 78.4537 9.312 78.0817 9.864C77.6497 10.536 77.4337 11.604 77.4337 13.068ZM86.9383 5.382C86.9383 5.034 87.0403 4.758 87.2443 4.554C87.4483 4.35 87.7183 4.248 88.0543 4.248C88.4023 4.248 88.6783 4.35 88.8823 4.554C89.0863 4.758 89.1883 5.034 89.1883 5.382C89.1883 5.718 89.0863 5.988 88.8823 6.192C88.6783 6.396 88.4023 6.498 88.0543 6.498C87.7063 6.498 87.4303 6.402 87.2263 6.21C87.0343 6.006 86.9383 5.73 86.9383 5.382ZM87.1903 9.36L85.8043 9.018V8.28H88.9363V16.92L90.3223 17.262V18H85.8043V17.262L87.1903 16.92V9.36ZM92.7977 16.92V9.36L91.4117 9.018V8.28H94.0037L94.3997 10.08H94.4717C94.8317 9.468 95.3177 8.988 95.9297 8.64C96.5417 8.28 97.1957 8.1 97.8917 8.1C98.8877 8.1 99.6257 8.424 100.106 9.072C100.346 9.408 100.514 9.882 100.61 10.494C100.718 11.094 100.772 11.91 100.772 12.942V16.92L102.158 17.262V18H97.8197V17.262L99.0257 16.92V12.906C99.0257 12.126 99.0017 11.544 98.9537 11.16C98.9177 10.776 98.8457 10.476 98.7377 10.26C98.4497 9.672 97.9217 9.378 97.1537 9.378C96.4577 9.378 95.8577 9.6 95.3537 10.044C94.8617 10.488 94.5917 11.178 94.5437 12.114V16.92L95.7497 17.262V18H91.4117V17.262L92.7977 16.92ZM102.721 9.18V8.532L104.467 8.28L104.701 6.012L106.213 5.796V8.28H108.517V9.18H106.213V15.606C106.213 16.014 106.219 16.296 106.231 16.452C106.243 16.596 106.267 16.716 106.303 16.812C106.339 16.896 106.405 16.956 106.501 16.992C106.597 17.016 106.753 17.028 106.969 17.028H108.229V17.55C107.653 17.766 107.143 17.922 106.699 18.018C106.267 18.126 105.919 18.18 105.655 18.18C105.115 18.18 104.767 17.958 104.611 17.514C104.563 17.37 104.527 17.184 104.503 16.956C104.479 16.728 104.467 16.392 104.467 15.948V9.18H102.721Z" fill="black"/>
<rect y="8" width="5" height="8" fill="#CD5252"/>
<rect width="5" height="8" fill="#4F67E4"/>
<rect y="16" width="5" height="8" fill="#DFC01E"/>
</svg>
