<svg width="519" height="198" viewBox="0 0 519 198" fill="none" xmlns="http://www.w3.org/2000/svg">
<rect x="48.043" y="129.377" width="357.421" height="26.3169" stroke="black" stroke-width="0.612022"/>
<path d="M68.0431 143.247H66.2035V146.415H65.1653V138.583H67.758C68.6402 138.583 69.318 138.784 69.7913 139.186C70.2683 139.587 70.5067 140.172 70.5067 140.939C70.5067 141.427 70.374 141.852 70.1087 142.214C69.8469 142.576 69.4811 142.847 69.0113 143.026L70.851 146.351V146.415H69.7429L68.0431 143.247ZM66.2035 142.402H67.7903C68.3031 142.402 68.7101 142.27 69.0113 142.004C69.3162 141.739 69.4686 141.384 69.4686 140.939C69.4686 140.455 69.3233 140.084 69.0329 139.826C68.746 139.568 68.33 139.437 67.7849 139.433H66.2035V142.402ZM74.2183 146.523C73.4294 146.523 72.7875 146.265 72.2926 145.748C71.7977 145.228 71.5503 144.534 71.5503 143.667V143.484C71.5503 142.906 71.6597 142.392 71.8784 141.94C72.1007 141.484 72.4091 141.129 72.8036 140.875C73.2017 140.617 73.632 140.488 74.0946 140.488C74.8513 140.488 75.4394 140.737 75.8589 141.235C76.2785 141.734 76.4883 142.447 76.4883 143.376V143.79H72.5454C72.5598 144.364 72.7265 144.828 73.0457 145.183C73.3684 145.535 73.7772 145.711 74.2721 145.711C74.6235 145.711 74.9212 145.639 75.165 145.495C75.4089 145.352 75.6223 145.162 75.8051 144.925L76.413 145.399C75.9253 146.148 75.1937 146.523 74.2183 146.523ZM74.0946 141.305C73.693 141.305 73.3559 141.452 73.0833 141.746C72.8108 142.037 72.6422 142.446 72.5777 142.973H75.4932V142.897C75.4645 142.392 75.3282 142.001 75.0843 141.725C74.8405 141.445 74.5106 141.305 74.0946 141.305ZM78.5861 140.595L78.6184 141.327C79.0631 140.767 79.644 140.488 80.3612 140.488C81.5913 140.488 82.2117 141.181 82.2224 142.569V146.415H81.2273V142.564C81.2237 142.144 81.1269 141.834 80.9368 141.633C80.7503 141.432 80.4581 141.332 80.06 141.332C79.7373 141.332 79.454 141.418 79.2101 141.59C78.9663 141.762 78.7762 141.988 78.6399 142.268V146.415H77.6448V140.595H78.5861ZM86.1384 146.523C85.3495 146.523 84.7076 146.265 84.2127 145.748C83.7178 145.228 83.4704 144.534 83.4704 143.667V143.484C83.4704 142.906 83.5797 142.392 83.7985 141.94C84.0208 141.484 84.3292 141.129 84.7237 140.875C85.1217 140.617 85.5521 140.488 86.0147 140.488C86.7713 140.488 87.3594 140.737 87.779 141.235C88.1986 141.734 88.4084 142.447 88.4084 143.376V143.79H84.4655C84.4798 144.364 84.6466 144.828 84.9658 145.183C85.2885 145.535 85.6973 145.711 86.1922 145.711C86.5436 145.711 86.8413 145.639 87.0851 145.495C87.329 145.352 87.5423 145.162 87.7252 144.925L88.3331 145.399C87.8454 146.148 87.1138 146.523 86.1384 146.523ZM86.0147 141.305C85.613 141.305 85.2759 141.452 85.0034 141.746C84.7309 142.037 84.5623 142.446 84.4978 142.973H87.4132V142.897C87.3846 142.392 87.2483 142.001 87.0044 141.725C86.7606 141.445 86.4307 141.305 86.0147 141.305ZM94.7181 145.044L95.8369 140.595H96.832L95.1376 146.415H94.3308L92.9161 142.004L91.539 146.415H90.7321L89.0431 140.595H90.0329L91.1786 144.952L92.5341 140.595H93.3356L94.7181 145.044ZM101.442 146.415C101.385 146.301 101.338 146.096 101.302 145.802C100.839 146.283 100.287 146.523 99.6453 146.523C99.0715 146.523 98.6 146.361 98.2306 146.039C97.8648 145.712 97.6819 145.3 97.6819 144.802C97.6819 144.196 97.9114 143.726 98.3705 143.392C98.8331 143.055 99.4821 142.887 100.318 142.887H101.286V142.429C101.286 142.082 101.182 141.805 100.974 141.601C100.766 141.393 100.459 141.289 100.054 141.289C99.6991 141.289 99.4015 141.379 99.1612 141.558C98.9209 141.737 98.8008 141.954 98.8008 142.209H97.8003C97.8003 141.918 97.9025 141.639 98.1069 141.37C98.3149 141.097 98.5946 140.882 98.946 140.724C99.301 140.566 99.6901 140.488 100.113 140.488C100.784 140.488 101.309 140.656 101.689 140.993C102.069 141.327 102.267 141.787 102.281 142.376V145.054C102.281 145.589 102.349 146.014 102.485 146.329V146.415H101.442ZM99.7905 145.657C100.103 145.657 100.398 145.576 100.678 145.415C100.958 145.253 101.16 145.044 101.286 144.785V143.591H100.506C99.2867 143.591 98.6771 143.948 98.6771 144.662C98.6771 144.974 98.7811 145.218 98.9891 145.393C99.1971 145.569 99.4642 145.657 99.7905 145.657ZM108.768 143.57C108.768 144.459 108.564 145.175 108.155 145.716C107.746 146.254 107.198 146.523 106.509 146.523C105.774 146.523 105.206 146.263 104.804 145.743L104.755 146.415H103.841V138.153H104.836V141.235C105.238 140.737 105.792 140.488 106.498 140.488C107.205 140.488 107.759 140.755 108.16 141.289C108.566 141.823 108.768 142.555 108.768 143.484V143.57ZM107.773 143.457C107.773 142.779 107.642 142.255 107.38 141.886C107.119 141.517 106.742 141.332 106.251 141.332C105.595 141.332 105.123 141.637 104.836 142.246V144.764C105.141 145.374 105.616 145.678 106.262 145.678C106.739 145.678 107.11 145.494 107.375 145.124C107.64 144.755 107.773 144.199 107.773 143.457ZM111.108 146.415H110.113V138.153H111.108V146.415ZM115.121 146.523C114.332 146.523 113.69 146.265 113.195 145.748C112.7 145.228 112.453 144.534 112.453 143.667V143.484C112.453 142.906 112.562 142.392 112.781 141.94C113.003 141.484 113.312 141.129 113.706 140.875C114.104 140.617 114.535 140.488 114.997 140.488C115.754 140.488 116.342 140.737 116.762 141.235C117.181 141.734 117.391 142.447 117.391 143.376V143.79H113.448C113.462 144.364 113.629 144.828 113.948 145.183C114.271 145.535 114.68 145.711 115.175 145.711C115.526 145.711 115.824 145.639 116.068 145.495C116.312 145.352 116.525 145.162 116.708 144.925L117.316 145.399C116.828 146.148 116.096 146.523 115.121 146.523ZM114.997 141.305C114.596 141.305 114.259 141.452 113.986 141.746C113.713 142.037 113.545 142.446 113.48 142.973H116.396V142.897C116.367 142.392 116.231 142.001 115.987 141.725C115.743 141.445 115.413 141.305 114.997 141.305ZM123.695 146.523C122.906 146.523 122.264 146.265 121.77 145.748C121.275 145.228 121.027 144.534 121.027 143.667V143.484C121.027 142.906 121.137 142.392 121.355 141.94C121.578 141.484 121.886 141.129 122.281 140.875C122.679 140.617 123.109 140.488 123.572 140.488C124.328 140.488 124.916 140.737 125.336 141.235C125.755 141.734 125.965 142.447 125.965 143.376V143.79H122.022C122.037 144.364 122.203 144.828 122.523 145.183C122.845 145.535 123.254 145.711 123.749 145.711C124.1 145.711 124.398 145.639 124.642 145.495C124.886 145.352 125.099 145.162 125.282 144.925L125.89 145.399C125.402 146.148 124.671 146.523 123.695 146.523ZM123.572 141.305C123.17 141.305 122.833 141.452 122.56 141.746C122.288 142.037 122.119 142.446 122.055 142.973H124.97V142.897C124.941 142.392 124.805 142.001 124.561 141.725C124.317 141.445 123.988 141.305 123.572 141.305ZM128.063 140.595L128.095 141.327C128.54 140.767 129.121 140.488 129.838 140.488C131.068 140.488 131.689 141.181 131.699 142.569V146.415H130.704V142.564C130.701 142.144 130.604 141.834 130.414 141.633C130.227 141.432 129.935 141.332 129.537 141.332C129.214 141.332 128.931 141.418 128.687 141.59C128.443 141.762 128.253 141.988 128.117 142.268V146.415H127.122V140.595H128.063ZM135.615 146.523C134.826 146.523 134.185 146.265 133.69 145.748C133.195 145.228 132.947 144.534 132.947 143.667V143.484C132.947 142.906 133.057 142.392 133.275 141.94C133.498 141.484 133.806 141.129 134.201 140.875C134.599 140.617 135.029 140.488 135.492 140.488C136.248 140.488 136.836 140.737 137.256 141.235C137.676 141.734 137.885 142.447 137.885 143.376V143.79H133.942C133.957 144.364 134.124 144.828 134.443 145.183C134.765 145.535 135.174 145.711 135.669 145.711C136.021 145.711 136.318 145.639 136.562 145.495C136.806 145.352 137.019 145.162 137.202 144.925L137.81 145.399C137.322 146.148 136.591 146.523 135.615 146.523ZM135.492 141.305C135.09 141.305 134.753 141.452 134.48 141.746C134.208 142.037 134.039 142.446 133.975 142.973H136.89V142.897C136.862 142.392 136.725 142.001 136.481 141.725C136.238 141.445 135.908 141.305 135.492 141.305ZM141.855 141.488C141.704 141.463 141.541 141.45 141.366 141.45C140.713 141.45 140.27 141.728 140.037 142.284V146.415H139.042V140.595H140.01L140.026 141.267C140.353 140.748 140.815 140.488 141.414 140.488C141.608 140.488 141.755 140.513 141.855 140.563V141.488ZM142.431 143.457C142.431 142.55 142.64 141.829 143.06 141.294C143.48 140.756 144.035 140.488 144.728 140.488C145.438 140.488 145.992 140.739 146.39 141.241L146.438 140.595H147.347V146.275C147.347 147.029 147.123 147.622 146.675 148.056C146.23 148.49 145.631 148.707 144.878 148.707C144.459 148.707 144.048 148.617 143.646 148.438C143.245 148.259 142.938 148.013 142.727 147.701L143.243 147.104C143.67 147.631 144.191 147.895 144.808 147.895C145.292 147.895 145.669 147.758 145.938 147.486C146.21 147.213 146.347 146.829 146.347 146.335V145.834C145.949 146.293 145.405 146.523 144.717 146.523C144.035 146.523 143.483 146.249 143.06 145.7C142.64 145.151 142.431 144.404 142.431 143.457ZM143.431 143.57C143.431 144.226 143.566 144.742 143.835 145.119C144.104 145.492 144.48 145.678 144.964 145.678C145.592 145.678 146.053 145.393 146.347 144.823V142.166C146.042 141.61 145.585 141.332 144.975 141.332C144.491 141.332 144.113 141.52 143.84 141.897C143.567 142.273 143.431 142.831 143.431 143.57ZM150.758 144.958L152.113 140.595H153.178L150.838 147.314C150.476 148.282 149.9 148.766 149.112 148.766L148.923 148.75L148.552 148.68V147.873L148.821 147.895C149.158 147.895 149.42 147.826 149.606 147.69C149.796 147.554 149.952 147.305 150.074 146.942L150.295 146.351L148.219 140.595H149.305L150.758 144.958ZM157.885 146.415H156.89V140.595H157.885V146.415ZM156.809 139.051C156.809 138.89 156.857 138.754 156.954 138.642C157.055 138.531 157.202 138.476 157.395 138.476C157.589 138.476 157.736 138.531 157.836 138.642C157.937 138.754 157.987 138.89 157.987 139.051C157.987 139.213 157.937 139.347 157.836 139.455C157.736 139.562 157.589 139.616 157.395 139.616C157.202 139.616 157.055 139.562 156.954 139.455C156.857 139.347 156.809 139.213 156.809 139.051ZM162.871 144.871C162.871 144.603 162.769 144.395 162.565 144.248C162.364 144.097 162.011 143.968 161.505 143.86C161.003 143.753 160.603 143.624 160.305 143.473C160.011 143.322 159.793 143.143 159.649 142.935C159.509 142.727 159.439 142.48 159.439 142.193C159.439 141.716 159.64 141.312 160.042 140.982C160.447 140.652 160.963 140.488 161.591 140.488C162.251 140.488 162.785 140.658 163.194 140.999C163.606 141.339 163.813 141.775 163.813 142.306H162.812C162.812 142.033 162.696 141.798 162.462 141.601C162.233 141.404 161.942 141.305 161.591 141.305C161.229 141.305 160.946 141.384 160.741 141.542C160.537 141.7 160.435 141.906 160.435 142.16C160.435 142.401 160.53 142.582 160.72 142.704C160.91 142.826 161.252 142.942 161.747 143.053C162.245 143.165 162.649 143.297 162.957 143.451C163.266 143.606 163.493 143.792 163.64 144.011C163.791 144.226 163.866 144.49 163.866 144.802C163.866 145.322 163.658 145.739 163.242 146.055C162.826 146.367 162.287 146.523 161.623 146.523C161.157 146.523 160.745 146.44 160.386 146.275C160.027 146.11 159.746 145.881 159.542 145.587C159.341 145.289 159.24 144.968 159.24 144.624H160.235C160.253 144.958 160.386 145.223 160.634 145.42C160.885 145.614 161.214 145.711 161.623 145.711C162 145.711 162.301 145.635 162.527 145.485C162.756 145.33 162.871 145.126 162.871 144.871ZM167.659 143.457C167.659 142.55 167.868 141.829 168.288 141.294C168.708 140.756 169.263 140.488 169.956 140.488C170.666 140.488 171.22 140.739 171.618 141.241L171.666 140.595H172.575V146.275C172.575 147.029 172.351 147.622 171.903 148.056C171.458 148.49 170.859 148.707 170.106 148.707C169.687 148.707 169.276 148.617 168.874 148.438C168.473 148.259 168.166 148.013 167.954 147.701L168.471 147.104C168.898 147.631 169.419 147.895 170.036 147.895C170.52 147.895 170.897 147.758 171.166 147.486C171.438 147.213 171.575 146.829 171.575 146.335V145.834C171.177 146.293 170.633 146.523 169.945 146.523C169.263 146.523 168.711 146.249 168.288 145.7C167.868 145.151 167.659 144.404 167.659 143.457ZM168.659 143.57C168.659 144.226 168.794 144.742 169.063 145.119C169.332 145.492 169.708 145.678 170.192 145.678C170.82 145.678 171.281 145.393 171.575 144.823V142.166C171.27 141.61 170.813 141.332 170.203 141.332C169.719 141.332 169.341 141.52 169.068 141.897C168.795 142.273 168.659 142.831 168.659 143.57ZM176.895 141.488C176.744 141.463 176.581 141.45 176.405 141.45C175.752 141.45 175.31 141.728 175.076 142.284V146.415H174.081V140.595H175.05L175.066 141.267C175.392 140.748 175.855 140.488 176.453 140.488C176.647 140.488 176.794 140.513 176.895 140.563V141.488ZM180.122 146.523C179.333 146.523 178.691 146.265 178.196 145.748C177.701 145.228 177.454 144.534 177.454 143.667V143.484C177.454 142.906 177.563 142.392 177.782 141.94C178.004 141.484 178.313 141.129 178.707 140.875C179.105 140.617 179.536 140.488 179.998 140.488C180.755 140.488 181.343 140.737 181.763 141.235C182.182 141.734 182.392 142.447 182.392 143.376V143.79H178.449C178.463 144.364 178.63 144.828 178.949 145.183C179.272 145.535 179.681 145.711 180.176 145.711C180.527 145.711 180.825 145.639 181.069 145.495C181.313 145.352 181.526 145.162 181.709 144.925L182.317 145.399C181.829 146.148 181.097 146.523 180.122 146.523ZM179.998 141.305C179.597 141.305 179.26 141.452 178.987 141.746C178.714 142.037 178.546 142.446 178.481 142.973H181.397V142.897C181.368 142.392 181.232 142.001 180.988 141.725C180.744 141.445 180.414 141.305 179.998 141.305ZM187.142 146.415C187.084 146.301 187.038 146.096 187.002 145.802C186.539 146.283 185.987 146.523 185.345 146.523C184.771 146.523 184.3 146.361 183.93 146.039C183.565 145.712 183.382 145.3 183.382 144.802C183.382 144.196 183.611 143.726 184.07 143.392C184.533 143.055 185.182 142.887 186.018 142.887H186.986V142.429C186.986 142.082 186.882 141.805 186.674 141.601C186.466 141.393 186.159 141.289 185.754 141.289C185.399 141.289 185.101 141.379 184.861 141.558C184.621 141.737 184.501 141.954 184.501 142.209H183.5C183.5 141.918 183.602 141.639 183.807 141.37C184.015 141.097 184.294 140.882 184.646 140.724C185.001 140.566 185.39 140.488 185.813 140.488C186.484 140.488 187.009 140.656 187.389 140.993C187.769 141.327 187.967 141.787 187.981 142.376V145.054C187.981 145.589 188.049 146.014 188.185 146.329V146.415H187.142ZM185.49 145.657C185.802 145.657 186.098 145.576 186.378 145.415C186.658 145.253 186.86 145.044 186.986 144.785V143.591H186.206C184.987 143.591 184.377 143.948 184.377 144.662C184.377 144.974 184.481 145.218 184.689 145.393C184.897 145.569 185.164 145.657 185.49 145.657ZM190.891 139.186V140.595H191.978V141.364H190.891V144.974C190.891 145.207 190.939 145.382 191.036 145.501C191.133 145.616 191.298 145.673 191.531 145.673C191.646 145.673 191.804 145.651 192.004 145.608V146.415C191.743 146.487 191.488 146.523 191.241 146.523C190.796 146.523 190.461 146.388 190.235 146.119C190.009 145.85 189.896 145.469 189.896 144.974V141.364H188.836V140.595H189.896V139.186H190.891Z" fill="black"/>
<path d="M196 136H199M202 136H199M199 136V150H196H202" stroke="black" stroke-width="0.7"/>
<path d="M59.8697 61.165H58.5588L58.1218 58.5431H53.8291V65.2778L56.8365 65.7662V67H48.8423V65.8947L51.2586 65.2778V50.1376L48.8423 49.5978V48.4925H63.3142V53.9933H61.9261L61.1036 49.9833H53.8291V57.0008H58.1218L58.5588 54.3789H59.8697V61.165ZM66.6235 48.9808C66.6235 48.4839 66.7692 48.0897 67.0605 47.7984C67.3518 47.5071 67.7374 47.3614 68.2172 47.3614C68.7142 47.3614 69.1083 47.5071 69.3996 47.7984C69.6909 48.0897 69.8366 48.4839 69.8366 48.9808C69.8366 49.4607 69.6909 49.8462 69.3996 50.1376C69.1083 50.4289 68.7142 50.5746 68.2172 50.5746C67.7202 50.5746 67.3261 50.4375 67.0348 50.1633C66.7606 49.872 66.6235 49.4778 66.6235 48.9808ZM66.9834 54.6616L65.0041 54.1732V53.1193H69.4767V65.4577L71.456 65.9461V67H65.0041V65.9461L66.9834 65.4577V54.6616ZM74.991 65.4577V54.6616L73.0118 54.1732V53.1193H76.7133L77.2788 55.6898H77.3816C77.8957 54.8159 78.5897 54.1304 79.4637 53.6334C80.3377 53.1193 81.2716 52.8623 82.2655 52.8623C83.6879 52.8623 84.7418 53.325 85.4272 54.2504C85.77 54.7302 86.0099 55.4071 86.147 56.281C86.3012 57.1379 86.3783 58.3032 86.3783 59.7769V65.4577L88.3576 65.9461V67H82.1627V65.9461L83.8849 65.4577V59.7255C83.8849 58.6116 83.8507 57.7805 83.7821 57.2321C83.7307 56.6838 83.6279 56.2553 83.4737 55.9469C83.0624 55.1072 82.3084 54.6873 81.2116 54.6873C80.2177 54.6873 79.3609 55.0044 78.6411 55.6384C77.9385 56.2725 77.553 57.2578 77.4844 58.5945V65.4577L79.2067 65.9461V67H73.0118V65.9461L74.991 65.4577ZM90.1126 60.1882C90.1126 59.0743 90.2582 58.0118 90.5496 57.0008C90.8409 55.9897 91.2779 55.1672 91.8605 54.5331C92.3575 53.9847 92.9487 53.5735 93.6341 53.2993C94.3196 53.008 95.1079 52.8623 95.999 52.8623C96.753 52.8623 97.4385 53.008 98.0554 53.2993C98.6894 53.5906 99.255 54.1133 99.7519 54.8673V48.4925L97.7726 48.0041V46.9502H102.245V65.4577L104.225 65.9461V67L100.24 67.257L100.035 65.1492C99.5034 65.9375 98.9037 66.4859 98.2353 66.7944C97.567 67.1028 96.8216 67.257 95.999 67.257C95.125 67.257 94.3367 67.1285 93.6341 66.8715C92.9315 66.6144 92.3489 66.2031 91.8862 65.6376C91.3378 64.9693 90.9009 64.1725 90.5753 63.2471C90.2668 62.3046 90.1126 61.2849 90.1126 60.1882ZM99.7519 60.1625C99.7519 58.0547 99.452 56.521 98.8522 55.5613C98.5781 55.1158 98.2439 54.7816 97.8497 54.5588C97.4556 54.3189 96.9329 54.1989 96.2817 54.1989C95.1165 54.1989 94.2511 54.6017 93.6856 55.4071C93.3771 55.8355 93.1543 56.4524 93.0172 57.2578C92.8801 58.0461 92.8116 58.9544 92.8116 59.9826C92.8116 62.0389 93.1115 63.5641 93.7113 64.558C94.0026 64.9864 94.3453 65.3206 94.7395 65.5605C95.1507 65.8004 95.6734 65.9204 96.3075 65.9204C96.9072 65.9204 97.4213 65.8261 97.8497 65.6376C98.2953 65.432 98.6295 65.1321 98.8522 64.738C99.1436 64.2581 99.3663 63.6412 99.5206 62.8872C99.6748 62.1161 99.7519 61.2078 99.7519 60.1625ZM125.175 59.9311C125.175 61.045 125.003 62.1075 124.661 63.1186C124.335 64.1125 123.872 64.935 123.273 65.5862C122.261 66.7001 120.771 67.257 118.8 67.257C117.857 67.257 117.018 67.1285 116.281 66.8715C115.544 66.5973 114.918 66.186 114.404 65.6376C113.822 65.0036 113.368 64.2239 113.042 63.2985C112.733 62.356 112.579 61.3363 112.579 60.2396C112.579 59.1257 112.742 58.0633 113.068 57.0522C113.393 56.024 113.865 55.1843 114.481 54.5331C115.03 53.9505 115.664 53.5306 116.384 53.2736C117.12 52.9994 117.96 52.8623 118.903 52.8623C119.845 52.8623 120.693 52.9994 121.447 53.2736C122.201 53.5306 122.836 53.9333 123.35 54.4817C123.949 55.1158 124.404 55.9126 124.712 56.8723C125.02 57.8148 125.175 58.8344 125.175 59.9311ZM115.33 59.9569C115.33 61.0022 115.407 61.9104 115.561 62.6816C115.732 63.4356 115.964 64.0611 116.255 64.558C116.546 64.9864 116.889 65.3206 117.283 65.5605C117.695 65.8004 118.226 65.9204 118.877 65.9204C120.059 65.9204 120.942 65.5177 121.525 64.7123C121.833 64.2667 122.056 63.6498 122.193 62.8615C122.347 62.0732 122.424 61.165 122.424 60.1368C122.424 59.1086 122.339 58.2089 122.167 57.4378C122.013 56.6666 121.79 56.0411 121.499 55.5613C121.225 55.1158 120.873 54.7816 120.445 54.5588C120.034 54.3189 119.502 54.1989 118.851 54.1989C117.652 54.1989 116.786 54.5931 116.255 55.3814C115.638 56.341 115.33 57.8662 115.33 59.9569ZM131.319 53.1193V60.3938C131.319 61.4906 131.345 62.3217 131.396 62.8872C131.465 63.4356 131.576 63.864 131.73 64.1725C132.124 65.0122 132.844 65.432 133.889 65.432C134.849 65.432 135.672 65.115 136.357 64.4809C137.06 63.8469 137.445 62.8615 137.514 61.5249V54.6616L135.278 54.1732V53.1193H140.007V65.4577L141.987 65.9461V67L138.002 67.257L137.719 64.4295H137.617C137.12 65.3035 136.443 65.9975 135.586 66.5116C134.729 67.0086 133.812 67.257 132.836 67.257C132.184 67.257 131.585 67.1371 131.036 66.8972C130.505 66.6401 130.085 66.2974 129.777 65.869C129.451 65.3892 129.211 64.7123 129.057 63.8383C128.903 62.9643 128.826 61.799 128.826 60.3424V54.6616L127.103 54.1732V53.1193H131.319ZM142.856 54.4046V53.4792L145.349 53.1193L145.683 49.8805L147.842 49.5721V53.1193H151.133V54.4046H147.842V63.5812C147.842 64.1639 147.851 64.5666 147.868 64.7894C147.885 64.995 147.92 65.1664 147.971 65.3035C148.022 65.4234 148.117 65.5091 148.254 65.5605C148.391 65.5948 148.614 65.6119 148.922 65.6119H150.721V66.3574C149.899 66.6658 149.17 66.8886 148.536 67.0257C147.92 67.1799 147.423 67.257 147.046 67.257C146.274 67.257 145.777 66.94 145.555 66.306C145.486 66.1003 145.435 65.8347 145.4 65.5091C145.366 65.1835 145.349 64.7037 145.349 64.0696V54.4046H142.856ZM161.552 54.6616L164.2 63.9154L164.508 65.432H164.637L164.945 63.9154L167.953 52.8623H169.804L172.914 63.9154L173.222 65.432H173.325L173.634 63.9154L176.204 54.6616L174.533 54.1732V53.1193H179.417V54.1732L178.029 54.6616L174.199 67.257H171.552L168.493 57.2321L165.511 67.257H162.863L158.93 54.6616L157.568 54.1732V53.1193H163.326V54.1732L161.552 54.6616ZM191.116 65.4577V59.7255C191.116 58.6116 191.082 57.7805 191.013 57.2321C190.962 56.6838 190.859 56.2553 190.705 55.9469C190.293 55.1072 189.539 54.6873 188.443 54.6873C187.449 54.6873 186.592 55.0044 185.872 55.6384C185.17 56.2553 184.784 57.2064 184.716 58.4917V65.4577L186.438 65.9461V67H180.243V65.9461L182.222 65.4577V48.4925L180.243 48.0041V46.9502H184.716V55.5356C185.23 54.713 185.907 54.0619 186.746 53.582C187.603 53.1022 188.52 52.8623 189.497 52.8623C190.919 52.8623 191.973 53.325 192.658 54.2504C193.001 54.7302 193.241 55.4071 193.378 56.281C193.532 57.1379 193.609 58.3032 193.609 59.7769V65.4577L195.589 65.9461V67H189.394V65.9461L191.116 65.4577ZM198.688 48.9808C198.688 48.4839 198.833 48.0897 199.125 47.7984C199.416 47.5071 199.801 47.3614 200.281 47.3614C200.778 47.3614 201.172 47.5071 201.464 47.7984C201.755 48.0897 201.901 48.4839 201.901 48.9808C201.901 49.4607 201.755 49.8462 201.464 50.1376C201.172 50.4289 200.778 50.5746 200.281 50.5746C199.784 50.5746 199.39 50.4375 199.099 50.1633C198.825 49.872 198.688 49.4778 198.688 48.9808ZM199.047 54.6616L197.068 54.1732V53.1193H201.541V65.4577L203.52 65.9461V67H197.068V65.9461L199.047 65.4577V54.6616ZM211.913 52.8623C213.387 52.8623 214.57 53.2307 215.461 53.9676C216.352 54.6873 216.797 55.6556 216.797 56.8723C216.797 58.1918 216.266 58.8515 215.204 58.8515C214.724 58.8515 214.338 58.7144 214.047 58.4403C213.773 58.1661 213.636 57.7976 213.636 57.3349C213.636 56.9065 213.747 56.5381 213.97 56.2296C214.21 55.9212 214.527 55.707 214.921 55.587C214.424 54.6445 213.473 54.1732 212.068 54.1732C210.662 54.1732 209.634 54.6359 208.983 55.5613C208.349 56.4695 208.032 57.8919 208.032 59.8283C208.032 60.668 208.083 61.3963 208.186 62.0132C208.306 62.613 208.477 63.1271 208.7 63.5555C209.386 64.8751 210.508 65.5348 212.068 65.5348C212.856 65.5348 213.61 65.3635 214.33 65.0207C215.049 64.678 215.666 64.1896 216.18 63.5555L216.952 64.1725C215.615 66.2289 213.781 67.257 211.451 67.257C209.017 67.257 207.286 66.2974 206.258 64.3781C205.641 63.2299 205.333 61.8419 205.333 60.2139C205.333 58.723 205.598 57.4292 206.13 56.3325C206.678 55.2357 207.449 54.3875 208.443 53.7877C209.437 53.1708 210.594 52.8623 211.913 52.8623ZM229.448 65.4577V59.7255C229.448 58.6116 229.413 57.7805 229.345 57.2321C229.293 56.6838 229.19 56.2553 229.036 55.9469C228.625 55.1072 227.871 54.6873 226.774 54.6873C225.78 54.6873 224.923 55.0044 224.204 55.6384C223.501 56.2553 223.116 57.2064 223.047 58.4917V65.4577L224.769 65.9461V67H218.574V65.9461L220.554 65.4577V48.4925L218.574 48.0041V46.9502H223.047V55.5356C223.561 54.713 224.238 54.0619 225.078 53.582C225.935 53.1022 226.851 52.8623 227.828 52.8623C229.25 52.8623 230.304 53.325 230.99 54.2504C231.333 54.7302 231.572 55.4071 231.71 56.281C231.864 57.1379 231.941 58.3032 231.941 59.7769V65.4577L233.92 65.9461V67H227.725V65.9461L229.448 65.4577ZM243.906 65.4577V54.6616L241.926 54.1732V53.1193H245.628L246.193 55.6898H246.296C246.793 54.833 247.453 54.1475 248.275 53.6334C249.115 53.1193 250.006 52.8623 250.949 52.8623C251.651 52.8623 252.277 52.9994 252.825 53.2736C253.373 53.5306 253.776 53.8562 254.033 54.2504C254.307 54.6788 254.53 55.2443 254.702 55.9469C255.25 54.9872 255.961 54.2332 256.835 53.6849C257.709 53.1365 258.643 52.8623 259.637 52.8623C260.322 52.8623 260.939 52.9994 261.488 53.2736C262.036 53.5306 262.456 53.8905 262.747 54.3532C262.953 54.6788 263.116 55.0986 263.236 55.6127C263.356 56.1268 263.441 56.7951 263.493 57.6177C263.544 58.4231 263.57 59.4513 263.57 60.7023V65.4577L265.549 65.9461V67H259.354V65.9461L261.076 65.4577V59.7255C261.076 58.6116 261.042 57.7805 260.974 57.2321C260.922 56.6838 260.819 56.2553 260.665 55.9469C260.254 55.1072 259.534 54.6873 258.506 54.6873C258.077 54.6873 257.658 54.773 257.246 54.9444C256.835 55.1158 256.467 55.3471 256.141 55.6384C255.764 55.9812 255.481 56.3839 255.293 56.8466C255.121 57.3092 255.019 57.8919 254.984 58.5945V65.4577L256.707 65.9461V67H250.769V65.9461L252.491 65.4577V59.7255C252.491 58.6116 252.457 57.7805 252.388 57.2321C252.337 56.6838 252.234 56.2553 252.08 55.9469C251.668 55.1072 250.949 54.6873 249.92 54.6873C249.492 54.6873 249.072 54.773 248.661 54.9444C248.25 55.1158 247.881 55.3471 247.556 55.6384C247.179 55.9812 246.896 56.3839 246.707 56.8466C246.536 57.3092 246.433 57.8919 246.399 58.5945V65.4577L248.121 65.9461V67H241.926V65.9461L243.906 65.4577ZM278.828 60.2139H269.857C269.857 61.4649 270.029 62.5016 270.372 63.3242C270.714 64.1125 271.203 64.678 271.837 65.0207C272.471 65.3635 273.156 65.5348 273.893 65.5348C274.699 65.5348 275.435 65.372 276.104 65.0464C276.772 64.7037 277.372 64.241 277.903 63.6584L278.726 64.2753C278.126 65.0978 277.398 65.8004 276.541 66.3831C275.684 66.9657 274.579 67.257 273.225 67.257C272.042 67.257 270.997 67.0086 270.089 66.5116C269.181 65.9975 268.487 65.2521 268.007 64.2753C267.75 63.744 267.561 63.1528 267.441 62.5016C267.321 61.8504 267.261 61.1564 267.261 60.4195C267.261 58.0204 267.81 56.1611 268.906 54.8416C270.02 53.5221 271.528 52.8623 273.43 52.8623C275.178 52.8623 276.524 53.4107 277.466 54.5074C278.426 55.587 278.906 57.0865 278.906 59.0058C278.906 59.1771 278.897 59.3399 278.88 59.4942C278.88 59.6313 278.863 59.8712 278.828 60.2139ZM273.276 54.2504C271.22 54.2504 270.089 55.8184 269.883 58.9544H276.309V58.1061C276.309 56.8723 276.044 55.9212 275.513 55.2529C274.998 54.5845 274.253 54.2504 273.276 54.2504ZM282.94 65.4577V54.6616L280.961 54.1732V53.1193H284.662L285.228 55.6898H285.33C285.827 54.833 286.487 54.1475 287.31 53.6334C288.149 53.1193 289.04 52.8623 289.983 52.8623C290.686 52.8623 291.311 52.9994 291.859 53.2736C292.408 53.5306 292.811 53.8562 293.068 54.2504C293.342 54.6788 293.565 55.2443 293.736 55.9469C294.284 54.9872 294.995 54.2332 295.869 53.6849C296.743 53.1365 297.677 52.8623 298.671 52.8623C299.357 52.8623 299.974 52.9994 300.522 53.2736C301.07 53.5306 301.49 53.8905 301.782 54.3532C301.987 54.6788 302.15 55.0986 302.27 55.6127C302.39 56.1268 302.476 56.7951 302.527 57.6177C302.578 58.4231 302.604 59.4513 302.604 60.7023V65.4577L304.583 65.9461V67H298.389V65.9461L300.111 65.4577V59.7255C300.111 58.6116 300.076 57.7805 300.008 57.2321C299.957 56.6838 299.854 56.2553 299.699 55.9469C299.288 55.1072 298.568 54.6873 297.54 54.6873C297.112 54.6873 296.692 54.773 296.281 54.9444C295.869 55.1158 295.501 55.3471 295.175 55.6384C294.798 55.9812 294.516 56.3839 294.327 56.8466C294.156 57.3092 294.053 57.8919 294.019 58.5945V65.4577L295.741 65.9461V67H289.803V65.9461L291.525 65.4577V59.7255C291.525 58.6116 291.491 57.7805 291.422 57.2321C291.371 56.6838 291.268 56.2553 291.114 55.9469C290.703 55.1072 289.983 54.6873 288.955 54.6873C288.526 54.6873 288.107 54.773 287.695 54.9444C287.284 55.1158 286.916 55.3471 286.59 55.6384C286.213 55.9812 285.93 56.3839 285.742 56.8466C285.57 57.3092 285.467 57.8919 285.433 58.5945V65.4577L287.155 65.9461V67H280.961V65.9461L282.94 65.4577ZM319.354 59.9311C319.354 61.045 319.191 62.0989 318.865 63.0929C318.54 64.0868 318.086 64.9179 317.503 65.5862C316.543 66.7001 315.164 67.257 313.364 67.257C312.49 67.257 311.711 67.06 311.025 66.6658C310.34 66.2546 309.731 65.5005 309.2 64.4038L308.429 67H307.221V48.4925L305.242 48.0041V46.9502H309.714V54.6102C310.228 53.959 310.802 53.5049 311.437 53.2479C312.071 52.9908 312.782 52.8623 313.57 52.8623C314.444 52.8623 315.232 52.9908 315.935 53.2479C316.655 53.5049 317.237 53.9162 317.683 54.4817C318.214 55.1329 318.625 55.9297 318.917 56.8723C319.208 57.8148 319.354 58.8344 319.354 59.9311ZM309.714 59.9569C309.714 62.0647 310.014 63.5984 310.614 64.558C310.888 64.9864 311.222 65.3206 311.616 65.5605C312.028 65.8004 312.55 65.9204 313.184 65.9204C314.35 65.9204 315.215 65.5177 315.781 64.7123C316.089 64.2667 316.312 63.6498 316.449 62.8615C316.586 62.0732 316.655 61.165 316.655 60.1368C316.655 58.0804 316.355 56.5552 315.755 55.5613C315.481 55.1158 315.138 54.7816 314.727 54.5588C314.333 54.3189 313.81 54.1989 313.159 54.1989C312.576 54.1989 312.062 54.3018 311.616 54.5074C311.188 54.6959 310.854 54.9872 310.614 55.3814C310.34 55.8612 310.117 56.4867 309.946 57.2578C309.791 58.0118 309.714 58.9115 309.714 59.9569ZM333.301 60.2139H324.33C324.33 61.4649 324.501 62.5016 324.844 63.3242C325.187 64.1125 325.675 64.678 326.309 65.0207C326.943 65.3635 327.629 65.5348 328.365 65.5348C329.171 65.5348 329.908 65.372 330.576 65.0464C331.244 64.7037 331.844 64.241 332.375 63.6584L333.198 64.2753C332.598 65.0978 331.87 65.8004 331.013 66.3831C330.156 66.9657 329.051 67.257 327.697 67.257C326.515 67.257 325.469 67.0086 324.561 66.5116C323.653 65.9975 322.959 65.2521 322.479 64.2753C322.222 63.744 322.033 63.1528 321.914 62.5016C321.794 61.8504 321.734 61.1564 321.734 60.4195C321.734 58.0204 322.282 56.1611 323.379 54.8416C324.493 53.5221 326.001 52.8623 327.903 52.8623C329.651 52.8623 330.996 53.4107 331.938 54.5074C332.898 55.587 333.378 57.0865 333.378 59.0058C333.378 59.1771 333.369 59.3399 333.352 59.4942C333.352 59.6313 333.335 59.8712 333.301 60.2139ZM327.749 54.2504C325.692 54.2504 324.561 55.8184 324.355 58.9544H330.782V58.1061C330.782 56.8723 330.516 55.9212 329.985 55.2529C329.471 54.5845 328.725 54.2504 327.749 54.2504ZM343.17 54.6102C343.016 54.5074 342.845 54.456 342.656 54.456C342.33 54.456 341.988 54.6616 341.628 55.0729C341.268 55.4671 340.951 55.9726 340.677 56.5895C340.163 57.8062 339.906 59.16 339.906 60.6509V65.4577L342.682 65.9461V67H335.433V65.9461L337.412 65.4577V54.6616L335.433 54.1732V53.1193H339.134L339.7 56.5124H339.803C340.197 55.3471 340.728 54.4474 341.396 53.8134C342.065 53.1793 342.802 52.8623 343.607 52.8623C344.275 52.8623 344.832 53.0765 345.278 53.5049C345.723 53.9162 345.946 54.4731 345.946 55.1757C345.946 55.6898 345.809 56.1011 345.535 56.4096C345.278 56.7009 344.927 56.8466 344.481 56.8466C344.035 56.8466 343.684 56.7095 343.427 56.4353C343.17 56.144 343.042 55.7669 343.042 55.3043C343.042 55.1329 343.084 54.9015 343.17 54.6102ZM352.553 66.0746C353.512 66.0746 354.292 65.8776 354.892 65.4834C355.509 65.0893 355.817 64.5409 355.817 63.8383C355.817 63.2728 355.629 62.8187 355.252 62.4759C354.875 62.1332 354.403 61.859 353.838 61.6534C353.289 61.4306 352.733 61.2421 352.167 61.0879C351.464 60.8651 350.788 60.608 350.136 60.3167C349.485 60.0083 348.954 59.5884 348.543 59.0572C348.131 58.5259 347.926 57.8233 347.926 56.9494C347.926 55.7155 348.371 54.7302 349.262 53.9933C350.171 53.2393 351.43 52.8623 353.041 52.8623C354.412 52.8623 355.492 53.1536 356.28 53.7363C357.085 54.3018 357.488 55.0815 357.488 56.0754C357.488 56.6066 357.368 57.0351 357.128 57.3607C356.888 57.6691 356.545 57.8233 356.1 57.8233C355.706 57.8233 355.38 57.7034 355.123 57.4635C354.866 57.2236 354.737 56.9151 354.737 56.5381C354.737 56.2125 354.823 55.9212 354.995 55.6641C355.166 55.3899 355.389 55.1929 355.663 55.0729C355.166 54.3875 354.318 54.0447 353.118 54.0447C351.062 54.0447 350.033 54.773 350.033 56.2296C350.033 56.7437 350.153 57.155 350.393 57.4635C350.65 57.7548 351.019 58.0033 351.499 58.2089C351.979 58.4146 352.57 58.6288 353.272 58.8515C354.043 59.0915 354.797 59.3656 355.534 59.6741C356.271 59.9826 356.871 60.4024 357.334 60.9336C357.814 61.4477 358.053 62.1675 358.053 63.0929C358.053 63.9668 357.814 64.7208 357.334 65.3549C356.854 65.9718 356.194 66.4431 355.354 66.7687C354.515 67.0943 353.547 67.257 352.45 67.257C350.942 67.257 349.725 66.9486 348.8 66.3317C347.874 65.7148 347.412 64.8836 347.412 63.8383C347.412 63.2899 347.532 62.8615 347.771 62.553C348.029 62.2275 348.388 62.0647 348.851 62.0647C349.262 62.0647 349.605 62.1846 349.879 62.4245C350.171 62.6644 350.316 62.9815 350.316 63.3756C350.316 63.7012 350.222 64.0097 350.033 64.301C349.862 64.5923 349.648 64.8065 349.391 64.9436C349.614 65.2692 350.008 65.5434 350.573 65.7662C351.156 65.9718 351.816 66.0746 352.553 66.0746ZM61.5148 88.9311C61.5148 90.045 61.3435 91.1075 61.0007 92.1186C60.6751 93.1125 60.2125 93.935 59.6127 94.5862C58.6016 95.7001 57.1107 96.257 55.14 96.257C54.1975 96.257 53.3578 96.1285 52.6209 95.8715C51.8841 95.5973 51.2586 95.186 50.7445 94.6376C50.1618 94.0036 49.7077 93.2239 49.3821 92.2985C49.0737 91.356 48.9194 90.3363 48.9194 89.2396C48.9194 88.1257 49.0822 87.0633 49.4078 86.0522C49.7334 85.024 50.2047 84.1843 50.8216 83.5331C51.37 82.9505 52.004 82.5306 52.7238 82.2736C53.4606 81.9994 54.3003 81.8623 55.2428 81.8623C56.1854 81.8623 57.0336 81.9994 57.7876 82.2736C58.5416 82.5306 59.1757 82.9333 59.6898 83.4817C60.2896 84.1158 60.7437 84.9126 61.0521 85.8723C61.3606 86.8148 61.5148 87.8344 61.5148 88.9311ZM51.6699 88.9569C51.6699 90.0022 51.747 90.9104 51.9012 91.6816C52.0726 92.4356 52.3039 93.0611 52.5952 93.558C52.8866 93.9864 53.2293 94.3206 53.6234 94.5605C54.0347 94.8004 54.5659 94.9204 55.2171 94.9204C56.3996 94.9204 57.2821 94.5177 57.8647 93.7123C58.1732 93.2667 58.396 92.6498 58.5331 91.8615C58.6873 91.0732 58.7644 90.165 58.7644 89.1368C58.7644 88.1086 58.6787 87.2089 58.5074 86.4378C58.3531 85.6666 58.1304 85.0411 57.839 84.5613C57.5648 84.1158 57.2135 83.7816 56.7851 83.5588C56.3739 83.3189 55.8426 83.1989 55.1914 83.1989C53.9919 83.1989 53.1265 83.5931 52.5952 84.3814C51.9783 85.341 51.6699 86.8662 51.6699 88.9569ZM63.1608 83.4046V82.4792L65.6541 82.1193V81.8623C65.6541 79.8916 66.0825 78.375 66.9394 77.3125C67.7962 76.2329 68.9529 75.6931 70.4095 75.6931C71.4206 75.6931 72.226 75.9416 72.8258 76.4386C73.4427 76.9184 73.7512 77.5353 73.7512 78.2893C73.7512 78.7691 73.6312 79.1376 73.3913 79.3946C73.1514 79.6345 72.8258 79.7545 72.4145 79.7545C72.0204 79.7545 71.7034 79.6431 71.4634 79.4203C71.2235 79.1975 71.1036 78.8805 71.1036 78.4692C71.1036 78.0237 71.2407 77.5781 71.5149 77.1326C71.2235 76.8241 70.8294 76.6699 70.3324 76.6699C69.9383 76.6699 69.5956 76.7556 69.3042 76.9269C68.9272 77.1497 68.653 77.4668 68.4817 77.878C68.3274 78.2893 68.2332 78.752 68.1989 79.2661C68.1646 79.7631 68.1475 80.2857 68.1475 80.8341V82.1193H71.4377V83.4046H68.1475V94.4577L70.9236 94.9461V96H63.6749V94.9461L65.6541 94.4577V83.4046H63.1608ZM86.3257 81.8623C87.7995 81.8623 88.9819 82.2307 89.873 82.9676C90.7641 83.6873 91.2096 84.6556 91.2096 85.8723C91.2096 87.1918 90.6784 87.8515 89.6159 87.8515C89.1361 87.8515 88.7505 87.7144 88.4592 87.4403C88.185 87.1661 88.0479 86.7976 88.0479 86.3349C88.0479 85.9065 88.1593 85.5381 88.3821 85.2296C88.622 84.9212 88.939 84.707 89.3332 84.587C88.8362 83.6445 87.8851 83.1732 86.4799 83.1732C85.0747 83.1732 84.0465 83.6359 83.3953 84.5613C82.7613 85.4695 82.4443 86.8919 82.4443 88.8283C82.4443 89.668 82.4957 90.3963 82.5985 91.0132C82.7185 91.613 82.8898 92.1271 83.1126 92.5555C83.7981 93.8751 84.9205 94.5348 86.4799 94.5348C87.2682 94.5348 88.0222 94.3635 88.742 94.0207C89.4617 93.678 90.0786 93.1896 90.5927 92.5555L91.3639 93.1725C90.0272 95.2289 88.1936 96.257 85.863 96.257C83.4296 96.257 81.6988 95.2974 80.6706 93.3781C80.0537 92.2299 79.7453 90.8419 79.7453 89.2139C79.7453 87.723 80.0109 86.4292 80.5421 85.3325C81.0905 84.2357 81.8616 83.3875 82.8555 82.7877C83.8495 82.1708 85.0062 81.8623 86.3257 81.8623ZM106.122 88.9311C106.122 90.045 105.951 91.1075 105.608 92.1186C105.282 93.1125 104.82 93.935 104.22 94.5862C103.209 95.7001 101.718 96.257 99.7471 96.257C98.8046 96.257 97.9649 96.1285 97.228 95.8715C96.4911 95.5973 95.8656 95.186 95.3516 94.6376C94.7689 94.0036 94.3148 93.2239 93.9892 92.2985C93.6807 91.356 93.5265 90.3363 93.5265 89.2396C93.5265 88.1257 93.6893 87.0633 94.0149 86.0522C94.3405 85.024 94.8117 84.1843 95.4287 83.5331C95.977 82.9505 96.6111 82.5306 97.3308 82.2736C98.0677 81.9994 98.9074 81.8623 99.8499 81.8623C100.792 81.8623 101.641 81.9994 102.395 82.2736C103.149 82.5306 103.783 82.9333 104.297 83.4817C104.897 84.1158 105.351 84.9126 105.659 85.8723C105.968 86.8148 106.122 87.8344 106.122 88.9311ZM96.2769 88.9569C96.2769 90.0022 96.354 90.9104 96.5083 91.6816C96.6796 92.4356 96.911 93.0611 97.2023 93.558C97.4936 93.9864 97.8364 94.3206 98.2305 94.5605C98.6418 94.8004 99.173 94.9204 99.8242 94.9204C101.007 94.9204 101.889 94.5177 102.472 93.7123C102.78 93.2667 103.003 92.6498 103.14 91.8615C103.294 91.0732 103.371 90.165 103.371 89.1368C103.371 88.1086 103.286 87.2089 103.114 86.4378C102.96 85.6666 102.737 85.0411 102.446 84.5613C102.172 84.1158 101.821 83.7816 101.392 83.5588C100.981 83.3189 100.45 83.1989 99.7985 83.1989C98.5989 83.1989 97.7335 83.5931 97.2023 84.3814C96.5854 85.341 96.2769 86.8662 96.2769 88.9569ZM110.21 94.4577V83.6616L108.231 83.1732V82.1193H111.932L112.498 84.6898H112.6C113.114 83.8159 113.808 83.1304 114.682 82.6334C115.556 82.1193 116.49 81.8623 117.484 81.8623C118.907 81.8623 119.961 82.325 120.646 83.2504C120.989 83.7302 121.229 84.4071 121.366 85.281C121.52 86.1379 121.597 87.3032 121.597 88.7769V94.4577L123.576 94.9461V96H117.381V94.9461L119.104 94.4577V88.7255C119.104 87.6116 119.069 86.7805 119.001 86.2321C118.949 85.6838 118.847 85.2553 118.692 84.9469C118.281 84.1072 117.527 83.6873 116.43 83.6873C115.436 83.6873 114.58 84.0044 113.86 84.6384C113.157 85.2725 112.772 86.2578 112.703 87.5945V94.4577L114.425 94.9461V96H108.231V94.9461L110.21 94.4577ZM137.181 96.257C137.181 97.5594 136.624 98.6305 135.51 99.4702C134.414 100.31 132.88 100.73 130.909 100.73C128.956 100.73 127.465 100.447 126.437 99.8814C125.426 99.3159 124.92 98.5277 124.92 97.5166C124.92 96.7112 125.16 96.0943 125.64 95.6658C126.12 95.2203 126.779 94.9375 127.619 94.8176V94.7148C126.488 94.3892 125.923 93.7208 125.923 92.7098C125.923 92.1785 126.111 91.6816 126.488 91.2189C126.882 90.7562 127.491 90.3878 128.313 90.1136C127.473 89.8051 126.822 89.3253 126.36 88.6741C125.897 88.0229 125.665 87.2261 125.665 86.2835C125.665 84.9126 126.137 83.833 127.079 83.0447C128.039 82.2564 129.316 81.8623 130.909 81.8623C132.503 81.8623 133.763 82.2564 134.688 83.0447L135.562 82.7363L137.927 81.6052H138.364V83.8673H137.927L136.127 83.6616H135.253C135.75 84.3471 135.999 85.1697 135.999 86.1293C135.999 87.4831 135.528 88.5541 134.585 89.3424C133.66 90.1136 132.374 90.4991 130.729 90.4991C130.558 90.4991 130.387 90.4991 130.215 90.4991C130.044 90.482 129.873 90.4649 129.701 90.4477C128.347 90.6534 127.67 91.1589 127.67 91.9643C127.67 92.3585 127.825 92.6327 128.133 92.7869C128.442 92.924 129.041 92.9925 129.933 92.9925H132.914C134.319 92.9925 135.382 93.2581 136.102 93.7894C136.821 94.3035 137.181 95.126 137.181 96.257ZM127.928 86.1807C127.928 87.2089 128.159 87.9886 128.622 88.5199C129.101 89.0511 129.838 89.3167 130.832 89.3167C131.843 89.3167 132.58 89.0511 133.043 88.5199C133.505 87.9886 133.737 87.2089 133.737 86.1807C133.737 85.1525 133.505 84.3728 133.043 83.8416C132.58 83.3103 131.843 83.0447 130.832 83.0447C129.838 83.0447 129.101 83.3103 128.622 83.8416C128.159 84.3728 127.928 85.1525 127.928 86.1807ZM131.783 94.9718H130.112C128.964 94.9718 128.133 95.1689 127.619 95.563C127.105 95.9572 126.848 96.4713 126.848 97.1053C126.848 98.6647 128.185 99.4445 130.858 99.4445C132.314 99.4445 133.42 99.2217 134.174 98.7761C134.945 98.3306 135.331 97.6794 135.331 96.8226C135.331 96.1371 135.065 95.6573 134.534 95.3831C134.02 95.1089 133.103 94.9718 131.783 94.9718ZM147.195 83.6102C147.041 83.5074 146.87 83.456 146.681 83.456C146.355 83.456 146.013 83.6616 145.653 84.0729C145.293 84.4671 144.976 84.9726 144.702 85.5895C144.188 86.8062 143.931 88.16 143.931 89.6509V94.4577L146.707 94.9461V96H139.458V94.9461L141.437 94.4577V83.6616L139.458 83.1732V82.1193H143.159L143.725 85.5124H143.828C144.222 84.3471 144.753 83.4474 145.422 82.8134C146.09 82.1793 146.827 81.8623 147.632 81.8623C148.3 81.8623 148.857 82.0765 149.303 82.5049C149.749 82.9162 149.971 83.4731 149.971 84.1757C149.971 84.6898 149.834 85.1011 149.56 85.4096C149.303 85.7009 148.952 85.8466 148.506 85.8466C148.061 85.8466 147.709 85.7095 147.452 85.4353C147.195 85.144 147.067 84.7669 147.067 84.3043C147.067 84.1329 147.109 83.9015 147.195 83.6102ZM162.955 89.2139H153.984C153.984 90.4649 154.156 91.5016 154.499 92.3242C154.841 93.1125 155.33 93.678 155.964 94.0207C156.598 94.3635 157.283 94.5348 158.02 94.5348C158.826 94.5348 159.562 94.372 160.231 94.0464C160.899 93.7037 161.499 93.241 162.03 92.6584L162.853 93.2753C162.253 94.0978 161.525 94.8004 160.668 95.3831C159.811 95.9657 158.706 96.257 157.352 96.257C156.169 96.257 155.124 96.0086 154.216 95.5116C153.308 94.9975 152.614 94.2521 152.134 93.2753C151.877 92.744 151.688 92.1528 151.568 91.5016C151.448 90.8504 151.388 90.1564 151.388 89.4195C151.388 87.0204 151.937 85.1611 153.033 83.8416C154.147 82.5221 155.655 81.8623 157.557 81.8623C159.305 81.8623 160.651 82.4107 161.593 83.5074C162.553 84.587 163.033 86.0865 163.033 88.0058C163.033 88.1771 163.024 88.3399 163.007 88.4942C163.007 88.6313 162.99 88.8712 162.955 89.2139ZM157.403 83.2504C155.347 83.2504 154.216 84.8184 154.01 87.9544H160.436V87.1061C160.436 85.8723 160.171 84.9212 159.64 84.2529C159.125 83.5845 158.38 83.2504 157.403 83.2504ZM170.434 95.0746C171.394 95.0746 172.174 94.8776 172.773 94.4834C173.39 94.0893 173.699 93.5409 173.699 92.8383C173.699 92.2728 173.51 91.8187 173.133 91.4759C172.756 91.1332 172.285 90.859 171.719 90.6534C171.171 90.4306 170.614 90.2421 170.049 90.0879C169.346 89.8651 168.669 89.608 168.018 89.3167C167.367 89.0083 166.836 88.5884 166.424 88.0572C166.013 87.5259 165.807 86.8233 165.807 85.9494C165.807 84.7155 166.253 83.7302 167.144 82.9933C168.052 82.2393 169.312 81.8623 170.923 81.8623C172.294 81.8623 173.373 82.1536 174.161 82.7363C174.967 83.3018 175.37 84.0815 175.37 85.0754C175.37 85.6066 175.25 86.0351 175.01 86.3607C174.77 86.6691 174.427 86.8233 173.982 86.8233C173.587 86.8233 173.262 86.7034 173.005 86.4635C172.748 86.2236 172.619 85.9151 172.619 85.5381C172.619 85.2125 172.705 84.9212 172.876 84.6641C173.048 84.3899 173.27 84.1929 173.545 84.0729C173.048 83.3875 172.199 83.0447 171 83.0447C168.943 83.0447 167.915 83.773 167.915 85.2296C167.915 85.7437 168.035 86.155 168.275 86.4635C168.532 86.7548 168.9 87.0033 169.38 87.2089C169.86 87.4146 170.451 87.6288 171.154 87.8515C171.925 88.0915 172.679 88.3656 173.416 88.6741C174.153 88.9826 174.753 89.4024 175.215 89.9336C175.695 90.4477 175.935 91.1675 175.935 92.0929C175.935 92.9668 175.695 93.7208 175.215 94.3549C174.736 94.9718 174.076 95.4431 173.236 95.7687C172.396 96.0943 171.428 96.257 170.331 96.257C168.823 96.257 167.607 95.9486 166.681 95.3317C165.756 94.7148 165.293 93.8836 165.293 92.8383C165.293 92.2899 165.413 91.8615 165.653 91.553C165.91 91.2275 166.27 91.0647 166.733 91.0647C167.144 91.0647 167.487 91.1846 167.761 91.4245C168.052 91.6644 168.198 91.9815 168.198 92.3756C168.198 92.7012 168.104 93.0097 167.915 93.301C167.744 93.5923 167.53 93.8065 167.273 93.9436C167.495 94.2692 167.889 94.5434 168.455 94.7662C169.038 94.9718 169.697 95.0746 170.434 95.0746ZM183.362 95.0746C184.322 95.0746 185.101 94.8776 185.701 94.4834C186.318 94.0893 186.627 93.5409 186.627 92.8383C186.627 92.2728 186.438 91.8187 186.061 91.4759C185.684 91.1332 185.213 90.859 184.647 90.6534C184.099 90.4306 183.542 90.2421 182.976 90.0879C182.274 89.8651 181.597 89.608 180.946 89.3167C180.295 89.0083 179.763 88.5884 179.352 88.0572C178.941 87.5259 178.735 86.8233 178.735 85.9494C178.735 84.7155 179.181 83.7302 180.072 82.9933C180.98 82.2393 182.24 81.8623 183.85 81.8623C185.221 81.8623 186.301 82.1536 187.089 82.7363C187.895 83.3018 188.297 84.0815 188.297 85.0754C188.297 85.6066 188.177 86.0351 187.937 86.3607C187.698 86.6691 187.355 86.8233 186.909 86.8233C186.515 86.8233 186.19 86.7034 185.932 86.4635C185.675 86.2236 185.547 85.9151 185.547 85.5381C185.547 85.2125 185.633 84.9212 185.804 84.6641C185.975 84.3899 186.198 84.1929 186.472 84.0729C185.975 83.3875 185.127 83.0447 183.928 83.0447C181.871 83.0447 180.843 83.773 180.843 85.2296C180.843 85.7437 180.963 86.155 181.203 86.4635C181.46 86.7548 181.828 87.0033 182.308 87.2089C182.788 87.4146 183.379 87.6288 184.082 87.8515C184.853 88.0915 185.607 88.3656 186.344 88.6741C187.081 88.9826 187.68 89.4024 188.143 89.9336C188.623 90.4477 188.863 91.1675 188.863 92.0929C188.863 92.9668 188.623 93.7208 188.143 94.3549C187.663 94.9718 187.004 95.4431 186.164 95.7687C185.324 96.0943 184.356 96.257 183.259 96.257C181.751 96.257 180.534 95.9486 179.609 95.3317C178.684 94.7148 178.221 93.8836 178.221 92.8383C178.221 92.2899 178.341 91.8615 178.581 91.553C178.838 91.2275 179.198 91.0647 179.66 91.0647C180.072 91.0647 180.414 91.1846 180.689 91.4245C180.98 91.6644 181.126 91.9815 181.126 92.3756C181.126 92.7012 181.031 93.0097 180.843 93.301C180.672 93.5923 180.457 93.8065 180.2 93.9436C180.423 94.2692 180.817 94.5434 181.383 94.7662C181.965 94.9718 182.625 95.0746 183.362 95.0746ZM197.521 92.9925C197.521 91.6559 198.147 90.602 199.398 89.8308C200.649 89.0597 202.722 88.4599 205.618 88.0315C205.55 87.0204 205.455 86.2321 205.335 85.6666C205.216 85.1011 205.061 84.647 204.873 84.3043C204.633 83.8587 204.299 83.5331 203.87 83.3275C203.442 83.1047 202.979 82.9933 202.482 82.9933C202.002 82.9933 201.565 83.079 201.171 83.2504C200.794 83.4217 200.537 83.6531 200.4 83.9444C200.64 84.1158 200.811 84.3385 200.914 84.6127C201.034 84.8869 201.094 85.144 201.094 85.3839C201.094 85.8123 200.949 86.155 200.657 86.4121C200.383 86.652 200.04 86.7719 199.629 86.7719C199.218 86.7719 198.875 86.6348 198.601 86.3607C198.344 86.0865 198.215 85.7009 198.215 85.2039C198.215 84.4842 198.464 83.8758 198.961 83.3789C199.458 82.8819 200.083 82.5049 200.837 82.2479C201.608 81.9908 202.379 81.8623 203.151 81.8623C204.607 81.8623 205.755 82.2821 206.595 83.1218C207.657 84.1843 208.189 86.0693 208.189 88.7769V92.5041C208.189 93.3438 208.24 93.9265 208.343 94.2521C208.463 94.5777 208.711 94.7405 209.088 94.7405H210.245V95.5116C209.011 96.0086 208.052 96.257 207.366 96.257C206.835 96.257 206.475 96.0685 206.287 95.6915C206.115 95.2974 206.03 94.552 206.03 93.4552H205.927C205.395 94.3292 204.693 95.0146 203.819 95.5116C202.945 96.0086 202.002 96.257 200.991 96.257C199.912 96.257 199.063 95.9657 198.447 95.3831C197.83 94.8004 197.521 94.0036 197.521 92.9925ZM202.071 94.7662C202.551 94.7662 203.048 94.6462 203.562 94.4063C204.093 94.1492 204.539 93.7979 204.899 93.3524C205.43 92.7012 205.695 91.7416 205.695 90.4734C205.695 90.1821 205.687 89.8994 205.67 89.6252C205.653 89.3339 205.627 89.0597 205.593 88.8026C204.204 89.0768 203.116 89.3767 202.328 89.7023C201.54 90.0108 200.983 90.3878 200.657 90.8333C200.332 91.2617 200.169 91.8015 200.169 92.4527C200.169 93.1896 200.332 93.7637 200.657 94.175C201 94.5691 201.471 94.7662 202.071 94.7662ZM223.383 96.257C223.383 97.5594 222.826 98.6305 221.712 99.4702C220.616 100.31 219.082 100.73 217.111 100.73C215.158 100.73 213.667 100.447 212.638 99.8814C211.627 99.3159 211.122 98.5277 211.122 97.5166C211.122 96.7112 211.362 96.0943 211.842 95.6658C212.321 95.2203 212.981 94.9375 213.821 94.8176V94.7148C212.69 94.3892 212.124 93.7208 212.124 92.7098C212.124 92.1785 212.313 91.6816 212.69 91.2189C213.084 90.7562 213.692 90.3878 214.515 90.1136C213.675 89.8051 213.024 89.3253 212.561 88.6741C212.099 88.0229 211.867 87.2261 211.867 86.2835C211.867 84.9126 212.339 83.833 213.281 83.0447C214.241 82.2564 215.517 81.8623 217.111 81.8623C218.705 81.8623 219.964 82.2564 220.89 83.0447L221.764 82.7363L224.129 81.6052H224.566V83.8673H224.129L222.329 83.6616H221.455C221.952 84.3471 222.201 85.1697 222.201 86.1293C222.201 87.4831 221.729 88.5541 220.787 89.3424C219.862 90.1136 218.576 90.4991 216.931 90.4991C216.76 90.4991 216.588 90.4991 216.417 90.4991C216.246 90.482 216.074 90.4649 215.903 90.4477C214.549 90.6534 213.872 91.1589 213.872 91.9643C213.872 92.3585 214.027 92.6327 214.335 92.7869C214.643 92.924 215.243 92.9925 216.134 92.9925H219.116C220.521 92.9925 221.584 93.2581 222.304 93.7894C223.023 94.3035 223.383 95.126 223.383 96.257ZM214.129 86.1807C214.129 87.2089 214.361 87.9886 214.823 88.5199C215.303 89.0511 216.04 89.3167 217.034 89.3167C218.045 89.3167 218.782 89.0511 219.245 88.5199C219.707 87.9886 219.939 87.2089 219.939 86.1807C219.939 85.1525 219.707 84.3728 219.245 83.8416C218.782 83.3103 218.045 83.0447 217.034 83.0447C216.04 83.0447 215.303 83.3103 214.823 83.8416C214.361 84.3728 214.129 85.1525 214.129 86.1807ZM217.985 94.9718H216.314C215.166 94.9718 214.335 95.1689 213.821 95.563C213.307 95.9572 213.05 96.4713 213.05 97.1053C213.05 98.6647 214.386 99.4445 217.06 99.4445C218.516 99.4445 219.622 99.2217 220.376 98.7761C221.147 98.3306 221.532 97.6794 221.532 96.8226C221.532 96.1371 221.267 95.6573 220.736 95.3831C220.221 95.1089 219.305 94.9718 217.985 94.9718ZM233.397 83.6102C233.243 83.5074 233.071 83.456 232.883 83.456C232.557 83.456 232.215 83.6616 231.855 84.0729C231.495 84.4671 231.178 84.9726 230.904 85.5895C230.39 86.8062 230.133 88.16 230.133 89.6509V94.4577L232.909 94.9461V96H225.66V94.9461L227.639 94.4577V83.6616L225.66 83.1732V82.1193H229.361L229.927 85.5124H230.03C230.424 84.3471 230.955 83.4474 231.623 82.8134C232.292 82.1793 233.029 81.8623 233.834 81.8623C234.502 81.8623 235.059 82.0765 235.505 82.5049C235.95 82.9162 236.173 83.4731 236.173 84.1757C236.173 84.6898 236.036 85.1011 235.762 85.4096C235.505 85.7009 235.154 85.8466 234.708 85.8466C234.262 85.8466 233.911 85.7095 233.654 85.4353C233.397 85.144 233.269 84.7669 233.269 84.3043C233.269 84.1329 233.311 83.9015 233.397 83.6102ZM249.157 89.2139H240.186C240.186 90.4649 240.358 91.5016 240.7 92.3242C241.043 93.1125 241.532 93.678 242.166 94.0207C242.8 94.3635 243.485 94.5348 244.222 94.5348C245.027 94.5348 245.764 94.372 246.433 94.0464C247.101 93.7037 247.701 93.241 248.232 92.6584L249.055 93.2753C248.455 94.0978 247.726 94.8004 246.87 95.3831C246.013 95.9657 244.907 96.257 243.554 96.257C242.371 96.257 241.326 96.0086 240.418 95.5116C239.509 94.9975 238.815 94.2521 238.336 93.2753C238.079 92.744 237.89 92.1528 237.77 91.5016C237.65 90.8504 237.59 90.1564 237.59 89.4195C237.59 87.0204 238.139 85.1611 239.235 83.8416C240.349 82.5221 241.857 81.8623 243.759 81.8623C245.507 81.8623 246.852 82.4107 247.795 83.5074C248.755 84.587 249.234 86.0865 249.234 88.0058C249.234 88.1771 249.226 88.3399 249.209 88.4942C249.209 88.6313 249.192 88.8712 249.157 89.2139ZM243.605 83.2504C241.549 83.2504 240.418 84.8184 240.212 87.9544H246.638V87.1061C246.638 85.8723 246.373 84.9212 245.841 84.2529C245.327 83.5845 244.582 83.2504 243.605 83.2504ZM263.139 89.2139H254.168C254.168 90.4649 254.34 91.5016 254.683 92.3242C255.025 93.1125 255.514 93.678 256.148 94.0207C256.782 94.3635 257.467 94.5348 258.204 94.5348C259.009 94.5348 259.746 94.372 260.415 94.0464C261.083 93.7037 261.683 93.241 262.214 92.6584L263.037 93.2753C262.437 94.0978 261.709 94.8004 260.852 95.3831C259.995 95.9657 258.89 96.257 257.536 96.257C256.353 96.257 255.308 96.0086 254.4 95.5116C253.492 94.9975 252.797 94.2521 252.318 93.2753C252.061 92.744 251.872 92.1528 251.752 91.5016C251.632 90.8504 251.572 90.1564 251.572 89.4195C251.572 87.0204 252.121 85.1611 253.217 83.8416C254.331 82.5221 255.839 81.8623 257.741 81.8623C259.489 81.8623 260.835 82.4107 261.777 83.5074C262.737 84.587 263.217 86.0865 263.217 88.0058C263.217 88.1771 263.208 88.3399 263.191 88.4942C263.191 88.6313 263.174 88.8712 263.139 89.2139ZM257.587 83.2504C255.531 83.2504 254.4 84.8184 254.194 87.9544H260.62V87.1061C260.62 85.8723 260.355 84.9212 259.823 84.2529C259.309 83.5845 258.564 83.2504 257.587 83.2504ZM274.513 83.6616L277.161 92.9154L277.47 94.432H277.598L277.906 92.9154L280.914 81.8623H282.765L285.875 92.9154L286.183 94.432H286.286L286.595 92.9154L289.165 83.6616L287.494 83.1732V82.1193H292.378V83.1732L290.99 83.6616L287.16 96.257H284.513L281.454 86.2321L278.472 96.257H275.824L271.892 83.6616L270.529 83.1732V82.1193H276.287V83.1732L274.513 83.6616ZM295.282 77.9808C295.282 77.4839 295.427 77.0897 295.719 76.7984C296.01 76.5071 296.396 76.3614 296.876 76.3614C297.372 76.3614 297.767 76.5071 298.058 76.7984C298.349 77.0897 298.495 77.4839 298.495 77.9808C298.495 78.4607 298.349 78.8462 298.058 79.1376C297.767 79.4289 297.372 79.5746 296.876 79.5746C296.379 79.5746 295.984 79.4375 295.693 79.1633C295.419 78.872 295.282 78.4778 295.282 77.9808ZM295.642 83.6616L293.662 83.1732V82.1193H298.135V94.4577L300.114 94.9461V96H293.662V94.9461L295.642 94.4577V83.6616ZM300.976 83.4046V82.4792L303.469 82.1193L303.804 78.8805L305.963 78.5721V82.1193H309.253V83.4046H305.963V92.5812C305.963 93.1639 305.971 93.5666 305.989 93.7894C306.006 93.995 306.04 94.1664 306.091 94.3035C306.143 94.4234 306.237 94.5091 306.374 94.5605C306.511 94.5948 306.734 94.6119 307.042 94.6119H308.842V95.3574C308.019 95.6658 307.291 95.8886 306.657 96.0257C306.04 96.1799 305.543 96.257 305.166 96.257C304.395 96.257 303.898 95.94 303.675 95.306C303.607 95.1003 303.555 94.8347 303.521 94.5091C303.487 94.1835 303.469 93.7037 303.469 93.0696V83.4046H300.976ZM321.021 94.4577V88.7255C321.021 87.6116 320.987 86.7805 320.918 86.2321C320.867 85.6838 320.764 85.2553 320.61 84.9469C320.199 84.1072 319.445 83.6873 318.348 83.6873C317.354 83.6873 316.497 84.0044 315.777 84.6384C315.075 85.2553 314.689 86.2064 314.621 87.4917V94.4577L316.343 94.9461V96H310.148V94.9461L312.127 94.4577V77.4925L310.148 77.0041V75.9502H314.621V84.5356C315.135 83.713 315.812 83.0619 316.651 82.582C317.508 82.1022 318.425 81.8623 319.402 81.8623C320.824 81.8623 321.878 82.325 322.564 83.2504C322.906 83.7302 323.146 84.4071 323.283 85.281C323.438 86.1379 323.515 87.3032 323.515 88.7769V94.4577L325.494 94.9461V96H319.299V94.9461L321.021 94.4577ZM345.059 83.6616L340.792 95.3831C340.312 96.7026 339.875 97.7651 339.481 98.5705C339.087 99.393 338.65 99.9843 338.17 100.344C337.69 100.704 337.073 100.884 336.319 100.884C335.514 100.884 334.82 100.67 334.237 100.241C333.672 99.8129 333.389 99.2731 333.389 98.6219C333.389 98.1421 333.526 97.7394 333.8 97.4138C334.074 97.1053 334.434 96.9511 334.88 96.9511C335.274 96.9511 335.582 97.0539 335.805 97.2595C336.045 97.4823 336.165 97.7822 336.165 98.1592C336.165 98.639 335.994 99.0675 335.651 99.4445C335.685 99.6158 335.788 99.7272 335.959 99.7786C336.131 99.8472 336.276 99.8814 336.396 99.8814C336.636 99.8814 336.859 99.8215 337.065 99.7015C337.27 99.5816 337.485 99.3245 337.707 98.9304C337.947 98.5534 338.204 97.9536 338.479 97.131L338.787 96.1799L333.466 83.6616L331.924 83.1732V82.1193H337.682L337.887 83.1732L336.062 83.6616L339.892 93.738H339.995L343.234 83.6616L341.743 83.1732V82.1193H346.627V83.1732L345.059 83.6616ZM360.234 88.9311C360.234 90.045 360.063 91.1075 359.72 92.1186C359.394 93.1125 358.932 93.935 358.332 94.5862C357.321 95.7001 355.83 96.257 353.859 96.257C352.917 96.257 352.077 96.1285 351.34 95.8715C350.603 95.5973 349.978 95.186 349.464 94.6376C348.881 94.0036 348.427 93.2239 348.101 92.2985C347.793 91.356 347.639 90.3363 347.639 89.2396C347.639 88.1257 347.802 87.0633 348.127 86.0522C348.453 85.024 348.924 84.1843 349.541 83.5331C350.089 82.9505 350.723 82.5306 351.443 82.2736C352.18 81.9994 353.02 81.8623 353.962 81.8623C354.905 81.8623 355.753 81.9994 356.507 82.2736C357.261 82.5306 357.895 82.9333 358.409 83.4817C359.009 84.1158 359.463 84.9126 359.771 85.8723C360.08 86.8148 360.234 87.8344 360.234 88.9311ZM350.389 88.9569C350.389 90.0022 350.466 90.9104 350.62 91.6816C350.792 92.4356 351.023 93.0611 351.315 93.558C351.606 93.9864 351.949 94.3206 352.343 94.5605C352.754 94.8004 353.285 94.9204 353.936 94.9204C355.119 94.9204 356.001 94.5177 356.584 93.7123C356.892 93.2667 357.115 92.6498 357.252 91.8615C357.407 91.0732 357.484 90.165 357.484 89.1368C357.484 88.1086 357.398 87.2089 357.227 86.4378C357.072 85.6666 356.85 85.0411 356.558 84.5613C356.284 84.1158 355.933 83.7816 355.504 83.5588C355.093 83.3189 354.562 83.1989 353.911 83.1989C352.711 83.1989 351.846 83.5931 351.315 84.3814C350.698 85.341 350.389 86.8662 350.389 88.9569ZM366.378 82.1193V89.3938C366.378 90.4906 366.404 91.3217 366.456 91.8872C366.524 92.4356 366.635 92.864 366.79 93.1725C367.184 94.0122 367.904 94.432 368.949 94.432C369.909 94.432 370.731 94.115 371.417 93.4809C372.119 92.8469 372.505 91.8615 372.573 90.5249V83.6616L370.337 83.1732V82.1193H375.067V94.4577L377.046 94.9461V96L373.062 96.257L372.779 93.4295H372.676C372.179 94.3035 371.502 94.9975 370.645 95.5116C369.789 96.0086 368.872 96.257 367.895 96.257C367.244 96.257 366.644 96.1371 366.096 95.8972C365.564 95.6401 365.145 95.2974 364.836 94.869C364.511 94.3892 364.271 93.7123 364.116 92.8383C363.962 91.9643 363.885 90.799 363.885 89.3424V83.6616L362.163 83.1732V82.1193H366.378Z" fill="black"/>
<rect x="405.464" y="129.377" width="77.1148" height="26.3169" stroke="black" stroke-width="0.612022"/>
<path d="M420.767 144.84C420.56 145.136 420.272 145.358 419.901 145.505C419.533 145.65 419.103 145.723 418.612 145.723C418.116 145.723 417.675 145.607 417.29 145.376C416.905 145.141 416.607 144.81 416.395 144.38C416.186 143.95 416.078 143.453 416.073 142.886V142.355C416.073 141.437 416.286 140.726 416.713 140.221C417.142 139.716 417.745 139.464 418.52 139.464C419.156 139.464 419.668 139.627 420.056 139.954C420.443 140.277 420.68 140.737 420.767 141.334H419.963C419.813 140.528 419.333 140.125 418.524 140.125C417.986 140.125 417.577 140.315 417.298 140.694C417.022 141.071 416.883 141.617 416.88 142.334V142.832C416.88 143.515 417.036 144.059 417.349 144.464C417.661 144.865 418.084 145.066 418.616 145.066C418.918 145.066 419.181 145.033 419.407 144.966C419.633 144.899 419.82 144.786 419.968 144.627V143.259H418.558V142.606H420.767V144.84ZM423.867 145.723C423.253 145.723 422.754 145.522 422.369 145.12C421.984 144.716 421.792 144.176 421.792 143.501V143.359C421.792 142.91 421.877 142.51 422.047 142.158C422.22 141.804 422.46 141.528 422.767 141.33C423.076 141.129 423.411 141.029 423.771 141.029C424.359 141.029 424.817 141.223 425.143 141.61C425.469 141.998 425.632 142.553 425.632 143.275V143.598H422.566C422.577 144.044 422.707 144.405 422.955 144.681C423.206 144.955 423.524 145.091 423.909 145.091C424.182 145.091 424.414 145.035 424.603 144.924C424.793 144.812 424.959 144.664 425.101 144.48L425.574 144.849C425.195 145.431 424.626 145.723 423.867 145.723ZM423.771 141.665C423.458 141.665 423.196 141.779 422.984 142.008C422.772 142.234 422.641 142.552 422.591 142.962H424.858V142.903C424.836 142.51 424.73 142.206 424.541 141.991C424.351 141.774 424.094 141.665 423.771 141.665ZM427.582 140.016V141.112H428.427V141.711H427.582V144.518C427.582 144.699 427.62 144.836 427.695 144.928C427.77 145.017 427.899 145.062 428.08 145.062C428.169 145.062 428.292 145.045 428.448 145.012V145.639C428.245 145.695 428.046 145.723 427.854 145.723C427.508 145.723 427.247 145.618 427.072 145.409C426.896 145.2 426.808 144.903 426.808 144.518V141.711H425.984V141.112H426.808V140.016H427.582ZM434.096 144.439C434.096 144.229 434.017 144.068 433.858 143.953C433.702 143.836 433.427 143.736 433.034 143.652C432.643 143.568 432.332 143.468 432.101 143.351C431.872 143.234 431.702 143.094 431.59 142.932C431.481 142.771 431.427 142.578 431.427 142.355C431.427 141.984 431.583 141.67 431.896 141.414C432.211 141.157 432.612 141.029 433.1 141.029C433.614 141.029 434.029 141.161 434.347 141.426C434.668 141.691 434.828 142.03 434.828 142.443H434.05C434.05 142.231 433.96 142.048 433.778 141.895C433.6 141.741 433.374 141.665 433.1 141.665C432.819 141.665 432.598 141.726 432.439 141.849C432.28 141.972 432.201 142.132 432.201 142.33C432.201 142.517 432.275 142.658 432.423 142.752C432.571 142.847 432.837 142.938 433.222 143.024C433.609 143.111 433.923 143.214 434.163 143.334C434.403 143.454 434.58 143.599 434.694 143.769C434.812 143.936 434.87 144.142 434.87 144.384C434.87 144.789 434.708 145.114 434.385 145.359C434.061 145.602 433.642 145.723 433.126 145.723C432.763 145.723 432.442 145.659 432.163 145.531C431.884 145.402 431.665 145.224 431.506 144.995C431.35 144.763 431.272 144.514 431.272 144.246H432.046C432.06 144.505 432.163 144.712 432.356 144.865C432.551 145.016 432.808 145.091 433.126 145.091C433.418 145.091 433.653 145.033 433.828 144.915C434.007 144.796 434.096 144.637 434.096 144.439ZM436.929 140.016V141.112H437.774V141.711H436.929V144.518C436.929 144.699 436.966 144.836 437.042 144.928C437.117 145.017 437.245 145.062 437.426 145.062C437.516 145.062 437.638 145.045 437.795 145.012V145.639C437.591 145.695 437.393 145.723 437.201 145.723C436.855 145.723 436.594 145.618 436.418 145.409C436.242 145.2 436.155 144.903 436.155 144.518V141.711H435.33V141.112H436.155V140.016H436.929ZM441.476 145.639C441.432 145.55 441.395 145.391 441.368 145.162C441.008 145.536 440.578 145.723 440.079 145.723C439.633 145.723 439.266 145.597 438.979 145.346C438.694 145.093 438.552 144.772 438.552 144.384C438.552 143.913 438.73 143.547 439.087 143.288C439.447 143.026 439.952 142.895 440.602 142.895H441.355V142.539C441.355 142.269 441.274 142.054 441.112 141.895C440.951 141.733 440.712 141.652 440.397 141.652C440.121 141.652 439.889 141.722 439.702 141.861C439.516 142.001 439.422 142.17 439.422 142.368H438.644C438.644 142.142 438.723 141.924 438.882 141.715C439.044 141.503 439.262 141.336 439.535 141.213C439.811 141.09 440.114 141.029 440.443 141.029C440.964 141.029 441.373 141.16 441.669 141.422C441.964 141.681 442.118 142.04 442.129 142.497V144.581C442.129 144.996 442.182 145.327 442.288 145.572V145.639H441.476ZM440.192 145.049C440.435 145.049 440.665 144.987 440.882 144.861C441.1 144.736 441.257 144.572 441.355 144.372V143.443H440.748C439.8 143.443 439.326 143.72 439.326 144.275C439.326 144.518 439.407 144.708 439.569 144.844C439.73 144.981 439.938 145.049 440.192 145.049ZM444.074 141.112L444.1 141.681C444.445 141.246 444.897 141.029 445.455 141.029C446.412 141.029 446.894 141.568 446.903 142.648V145.639H446.129V142.644C446.126 142.317 446.051 142.076 445.903 141.92C445.758 141.764 445.53 141.686 445.221 141.686C444.97 141.686 444.749 141.753 444.56 141.886C444.37 142.02 444.222 142.196 444.116 142.414V145.639H443.342V141.112H444.074ZM447.882 143.338C447.882 142.644 448.046 142.086 448.375 141.665C448.704 141.241 449.135 141.029 449.668 141.029C450.198 141.029 450.618 141.21 450.927 141.573V139.213H451.701V145.639H450.99L450.952 145.154C450.643 145.533 450.212 145.723 449.66 145.723C449.135 145.723 448.707 145.508 448.375 145.079C448.046 144.649 447.882 144.089 447.882 143.397V143.338ZM448.656 143.426C448.656 143.939 448.762 144.341 448.974 144.631C449.186 144.921 449.478 145.066 449.852 145.066C450.343 145.066 450.701 144.846 450.927 144.405V142.326C450.696 141.899 450.34 141.686 449.861 141.686C449.481 141.686 449.186 141.832 448.974 142.125C448.762 142.418 448.656 142.852 448.656 143.426ZM456.73 143.426C456.73 144.115 456.573 144.67 456.257 145.091C455.942 145.512 455.516 145.723 454.977 145.723C454.428 145.723 453.995 145.549 453.68 145.2V147.38H452.906V141.112H453.613L453.651 141.615C453.966 141.224 454.404 141.029 454.965 141.029C455.509 141.029 455.938 141.234 456.253 141.644C456.571 142.054 456.73 142.624 456.73 143.355V143.426ZM455.956 143.338C455.956 142.828 455.847 142.425 455.63 142.129C455.412 141.833 455.114 141.686 454.735 141.686C454.266 141.686 453.915 141.893 453.68 142.309V144.472C453.912 144.885 454.266 145.091 454.743 145.091C455.114 145.091 455.408 144.945 455.626 144.652C455.846 144.356 455.956 143.918 455.956 143.338ZM457.513 143.334C457.513 142.891 457.599 142.492 457.772 142.137C457.948 141.783 458.19 141.51 458.5 141.317C458.812 141.125 459.168 141.029 459.567 141.029C460.183 141.029 460.681 141.242 461.06 141.669C461.443 142.096 461.634 142.663 461.634 143.372V143.426C461.634 143.867 461.549 144.263 461.378 144.614C461.211 144.963 460.97 145.235 460.655 145.43C460.342 145.625 459.982 145.723 459.575 145.723C458.962 145.723 458.464 145.51 458.082 145.083C457.702 144.656 457.513 144.091 457.513 143.388V143.334ZM458.291 143.426C458.291 143.928 458.407 144.331 458.638 144.635C458.872 144.939 459.185 145.091 459.575 145.091C459.968 145.091 460.281 144.938 460.512 144.631C460.744 144.321 460.86 143.889 460.86 143.334C460.86 142.838 460.741 142.436 460.504 142.129C460.27 141.82 459.957 141.665 459.567 141.665C459.185 141.665 458.876 141.817 458.642 142.121C458.408 142.425 458.291 142.86 458.291 143.426ZM463.445 145.639H462.671V141.112H463.445V145.639ZM462.608 139.912C462.608 139.786 462.646 139.68 462.721 139.594C462.799 139.507 462.914 139.464 463.064 139.464C463.215 139.464 463.329 139.507 463.407 139.594C463.486 139.68 463.525 139.786 463.525 139.912C463.525 140.037 463.486 140.142 463.407 140.226C463.329 140.309 463.215 140.351 463.064 140.351C462.914 140.351 462.799 140.309 462.721 140.226C462.646 140.142 462.608 140.037 462.608 139.912ZM465.42 141.112L465.445 141.681C465.791 141.246 466.243 141.029 466.801 141.029C467.757 141.029 468.24 141.568 468.248 142.648V145.639H467.474V142.644C467.471 142.317 467.396 142.076 467.248 141.92C467.103 141.764 466.876 141.686 466.566 141.686C466.315 141.686 466.095 141.753 465.905 141.886C465.716 142.02 465.568 142.196 465.462 142.414V145.639H464.688V141.112H465.42ZM470.465 140.016V141.112H471.311V141.711H470.465V144.518C470.465 144.699 470.503 144.836 470.578 144.928C470.654 145.017 470.782 145.062 470.963 145.062C471.053 145.062 471.175 145.045 471.332 145.012V145.639C471.128 145.695 470.93 145.723 470.737 145.723C470.392 145.723 470.131 145.618 469.955 145.409C469.779 145.2 469.691 144.903 469.691 144.518V141.711H468.867V141.112H469.691V140.016H470.465Z" fill="black"/>
<path d="M3.73702 32C3.73702 24.9738 3.3204 18.093 2.51479 11.1111C1.91171 5.88437 0.780014 5.41407 6.45924 4.44444C11.9064 3.51444 18.2011 2 23.737 2" stroke="black" stroke-width="3" stroke-linecap="round" stroke-linejoin="round"/>
<path d="M489.737 196C495.454 195.103 500.974 195 506.737 195C508.534 195 512.591 195.798 514.181 194.889C515.953 193.877 514.757 184.708 515.237 182.5C515.883 179.527 516.737 176.031 516.737 173" stroke="black" stroke-width="3" stroke-linecap="round" stroke-linejoin="round"/>
</svg>
